<svg width="210" height="32" viewBox="0 0 210 32" fill="none" xmlns="http://www.w3.org/2000/svg">
<g clip-path="url(#clip0_250_8327)">
<path d="M121.138 11.9895H123.08C124.353 11.9895 125.089 11.9226 125.424 11.8556C125.759 11.7886 125.96 11.5878 126.161 11.3199C126.362 11.052 126.429 10.7172 126.429 10.3154C126.429 9.84668 126.295 9.51186 126.094 9.244C125.893 8.97614 125.558 8.77525 125.089 8.70829C124.888 8.70829 124.219 8.64132 123.214 8.64132H121.205V11.9895H121.138ZM118.527 19.4895V6.56543H124.018C125.424 6.56543 126.429 6.69936 127.031 6.90025C127.634 7.10114 128.17 7.56989 128.505 8.17257C128.906 8.77525 129.04 9.44489 129.04 10.1815C129.04 11.186 128.772 11.9226 128.17 12.5922C127.567 13.1949 126.763 13.5967 125.625 13.7976C126.161 14.1324 126.63 14.4672 127.031 14.869C127.366 15.2708 127.902 15.9404 128.505 16.9449L130.112 19.4895H126.964L125.089 16.677C124.42 15.6726 123.951 15.0699 123.683 14.802C123.415 14.5342 123.147 14.3333 122.88 14.2663C122.612 14.1994 122.143 14.1324 121.54 14.1324H121.005V19.5565H118.527V19.4895Z" fill="white"/>
<path d="M133.46 19.4895V6.56543H138.951C140.357 6.56543 141.362 6.69936 141.964 6.90025C142.567 7.10114 143.103 7.56989 143.438 8.17257C143.839 8.77525 143.973 9.44489 143.973 10.1815C143.973 11.186 143.705 11.9226 143.103 12.5922C142.5 13.1949 141.697 13.5967 140.558 13.7976C141.094 14.1324 141.563 14.4672 141.964 14.869C142.299 15.2708 142.835 15.9404 143.438 16.9449L145.045 19.4895H141.897L140.022 16.677C139.353 15.6726 138.884 15.0699 138.616 14.802C138.348 14.5342 138.08 14.3333 137.813 14.2663C137.545 14.1994 137.076 14.1324 136.473 14.1324H136.072V19.5565H133.46V19.4895ZM136.072 11.9895H138.014C139.286 11.9895 140.022 11.9226 140.357 11.8556C140.692 11.7886 140.893 11.5878 141.094 11.3199C141.295 11.052 141.362 10.7172 141.362 10.3154C141.362 9.84668 141.228 9.51186 141.027 9.244C140.826 8.97614 140.491 8.77525 140.022 8.70829C139.822 8.70829 139.152 8.64132 138.147 8.64132H136.139V11.9895H136.072Z" fill="white"/>
<path d="M20.8929 19.4895H18.0804L16.942 16.5431H11.7857L10.7143 19.4895H7.96875L12.9911 6.56543H15.7366L20.8929 19.4895ZM16.0714 14.3333L14.2634 9.51186L12.5223 14.3333H16.0714Z" fill="white"/>
<path d="M24.1743 19.4895V6.56543H33.0136V8.70829H26.7859V11.7886H32.21V13.9985H26.7859V19.4895H24.1743Z" fill="white"/>
<path d="M39.9771 19.4891V8.70787H36.1602V6.49805H46.4727V8.70787H42.6557V19.4891H39.9771Z" fill="white"/>
<path d="M49.9551 19.4895V6.56543H59.531V8.70829H52.5667V11.5877H59.0622V13.7976H52.5667V17.3467H59.7988V19.5565H49.9551V19.4895Z" fill="white"/>
<path d="M115.245 19.4895H112.433L111.294 16.5431H106.138L105.067 19.4895H102.321L107.344 6.56543H110.089L115.245 19.4895ZM110.491 14.3333L108.683 9.51186L106.942 14.3333H110.491Z" fill="white"/>
<path d="M160.045 19.4895H157.232L156.094 16.5431H150.938L149.866 19.4895H147.121L152.143 6.56543H154.888L160.045 19.4895ZM155.223 14.3333L153.415 9.51186L151.674 14.3333H155.223Z" fill="white"/>
<path d="M163.326 19.4895V6.56543H165.87L171.161 15.2038V6.56543H173.571V19.4895H170.96L165.736 11.052V19.4895H163.326Z" fill="white"/>
<path d="M181.138 19.4891V8.70787H177.321V6.49805H187.634V8.70787H183.817V19.4891H181.138Z" fill="white"/>
<path d="M194.531 19.4895V14.0654L189.777 6.56543H192.857L195.871 11.6547L198.884 6.56543H201.897L197.143 14.0654V19.4895H194.531Z" fill="white"/>
<path d="M100.714 6.56516C101.585 6.23034 102.857 5.82855 104.33 5.3598C105.469 5.02498 109.687 3.6857 116.719 2.5473C122.545 1.54284 126.83 1.27498 132.857 0.873196C137.411 0.538375 139.888 0.538375 141.964 1.00712C144.509 1.6098 145.179 2.61427 145.246 2.7482C145.714 3.4848 144.375 4.55623 143.437 5.3598C142.768 5.96248 142.165 6.36427 141.228 6.89998C140.558 7.30177 140.089 7.56962 139.152 8.03837C137.545 8.90891 137.009 9.3107 136.138 9.71248C131.25 12.1232 128.437 13.4625 123.75 15.2036C118.728 17.0786 114.442 18.4178 111.763 19.2214C110.759 19.5562 106.272 20.8955 99.7768 22.5027C96.0937 23.4402 91.2723 24.5786 84.5089 25.8509C80.625 26.5875 77.3437 26.9893 70.6473 27.8598C68.5714 28.1277 66.2277 28.3955 63.3482 28.2616C62.4777 28.1946 59.0625 27.9937 57.1875 26.9893C56.7187 26.7214 55.8482 26.1857 56.1161 24.9803C56.3169 24.1098 57.5223 21.5317 62.6116 19.5897C63.9509 19.054 63.817 18.987 66.2946 18.5852" stroke="#FFDC74" stroke-width="0.669643" stroke-miterlimit="10"/>
<path d="M134.264 0.739407C138.817 0.404586 141.295 0.404586 143.371 0.873336C145.916 1.47601 146.585 2.48048 146.652 2.61441C147.255 3.61887 146.05 4.42244 144.844 5.22601C140.157 8.37334 137.545 9.64566 137.545 9.64566C132.657 12.0564 129.911 13.3957 125.157 15.1367C120.134 17.0787 115.849 18.351 113.17 19.1546C112.166 19.4894 107.679 20.8287 101.183 22.4358C97.5004 23.3733 92.679 24.5787 85.9156 25.851C82.0317 26.5876 78.7504 26.9894 72.054 27.8599C69.9781 28.1278 67.6343 28.3957 64.7549 28.2617" stroke="#FFDC74" stroke-width="0.669643" stroke-miterlimit="10"/>
<path d="M144.777 4.22126C145.246 3.9534 145.446 3.41769 145.915 3.2168" stroke="#FFDC74" stroke-width="0.669643" stroke-miterlimit="10"/>
<path d="M143.036 6.0293C143.304 5.8284 143.504 5.49358 143.839 5.29269C144.241 4.95787 144.844 4.82394 145.178 4.48912C145.379 4.28823 145.647 4.08733 145.781 3.9534C145.982 3.81948 146.116 3.61858 146.183 3.35073C146.25 3.08287 146.116 2.74805 145.915 2.54715C145.714 2.34626 145.446 2.21233 145.178 2.0784C145.112 2.01144 145.045 1.87751 144.911 1.81055" stroke="#FFDC74" stroke-width="0.669643" stroke-miterlimit="10"/>
<path d="M18.75 27.1904H21.1607V27.4583H19.0848V29.1994H20.8259V29.4672H19.0848V31.6101H18.75V27.1904Z" fill="white" stroke="white" stroke-width="0.167411" stroke-miterlimit="10"/>
<path d="M24.107 27.1904H24.4418L25.982 31.6101H25.6472L24.7766 28.9985C24.5758 28.4628 24.4418 27.994 24.3079 27.4583C24.174 27.994 23.9731 28.4628 23.8391 28.9985L22.9686 31.6101H22.6338L24.107 27.1904ZM23.3034 29.869H25.3124V30.1369H23.3034V29.869Z" fill="white" stroke="white" stroke-width="0.167411" stroke-miterlimit="10"/>
<path d="M27.6562 29.3998C27.6562 27.9936 28.3929 27.123 29.5312 27.123C30.067 27.123 30.4688 27.3909 30.6696 27.6588L30.4688 27.8597C30.2009 27.5918 29.933 27.3909 29.5312 27.3909C28.5937 27.3909 27.9911 28.1275 27.9911 29.3998C27.9911 30.6052 28.5937 31.4088 29.5312 31.4088C30 31.4088 30.3348 31.2079 30.6696 30.873L30.8705 31.0739C30.5357 31.4757 30.1339 31.6766 29.5312 31.6766C28.3929 31.6766 27.6562 30.8061 27.6562 29.3998Z" fill="white" stroke="white" stroke-width="0.167411" stroke-miterlimit="10"/>
<path d="M33.8843 27.4583H32.478V27.1904H35.6253V27.4583H34.2191V31.6101H33.8843V27.4583Z" fill="white" stroke="white" stroke-width="0.167411" stroke-miterlimit="10"/>
<path d="M37.3657 29.3998C37.3657 27.9936 38.1023 27.123 39.1738 27.123C40.2452 27.123 40.9818 27.9936 40.9818 29.3998C40.9818 30.8061 40.2452 31.6766 39.1738 31.6766C38.1023 31.6766 37.3657 30.8061 37.3657 29.3998ZM40.647 29.3998C40.647 28.1945 40.0443 27.3909 39.1738 27.3909C38.3032 27.3909 37.7005 28.1275 37.7005 29.3998C37.7005 30.6052 38.3032 31.4088 39.1738 31.4088C40.0443 31.4088 40.647 30.6052 40.647 29.3998Z" fill="white" stroke="white" stroke-width="0.167411" stroke-miterlimit="10"/>
<path d="M43.1919 27.1904H44.4642C45.3348 27.1904 45.9374 27.5253 45.9374 28.3288C45.9374 29.1324 45.3348 29.5342 44.4642 29.5342H43.5267V31.5431H43.1919V27.1904ZM44.3973 29.3333C45.2008 29.3333 45.6026 28.9985 45.6026 28.3958C45.6026 27.7261 45.2008 27.4583 44.3973 27.4583H43.5267V29.3333H44.3973ZM44.3973 29.5342L44.6651 29.4672L46.0044 31.677H45.6696L44.3973 29.5342Z" fill="white" stroke="white" stroke-width="0.167411" stroke-miterlimit="10"/>
<path d="M48.7499 29.802L47.4106 27.1904H47.7455L48.4151 28.5967C48.549 28.9315 48.683 29.1994 48.8839 29.5342C49.0847 29.1994 49.2187 28.9315 49.3526 28.5967L50.0222 27.1904H50.3571L49.0178 29.802V31.6101H48.683V29.802H48.7499Z" fill="white" stroke="white" stroke-width="0.167411" stroke-miterlimit="10"/>
<path d="M54.8438 27.1904H55.8482C57.1875 27.1904 57.8571 28.061 57.8571 29.4003C57.8571 30.7395 57.1875 31.6101 55.8482 31.6101H54.8438V27.1904ZM55.8482 31.3422C57.0536 31.3422 57.5893 30.5386 57.5893 29.4003C57.5893 28.2619 57.0536 27.4583 55.8482 27.4583H55.1786V31.3422H55.8482Z" fill="white" stroke="white" stroke-width="0.167411" stroke-miterlimit="10"/>
<path d="M60.1338 27.1904H60.4686V31.6101H60.1338V27.1904Z" fill="white" stroke="white" stroke-width="0.167411" stroke-miterlimit="10"/>
<path d="M62.9463 27.1904H64.2186C65.0891 27.1904 65.6918 27.5253 65.6918 28.3288C65.6918 29.1324 65.0891 29.5342 64.2186 29.5342H63.2811V31.5431H62.9463V27.1904ZM64.0847 29.3333C64.8883 29.3333 65.29 28.9985 65.29 28.3958C65.29 27.7261 64.8883 27.4583 64.0847 27.4583H63.2141V29.3333H64.0847ZM64.1516 29.5342L64.4195 29.4672L65.7588 31.677H65.424L64.1516 29.5342Z" fill="white" stroke="white" stroke-width="0.167411" stroke-miterlimit="10"/>
<path d="M67.7681 27.1904H70.1788V27.4583H68.1029V29.1324H69.844V29.4003H68.1029V31.3422H70.2457V31.6101H67.7681V27.1904Z" fill="white" stroke="white" stroke-width="0.167411" stroke-miterlimit="10"/>
<path d="M72.1875 29.3998C72.1875 27.9936 72.9241 27.123 74.0625 27.123C74.5982 27.123 75 27.3909 75.2009 27.6588L75 27.8597C74.7321 27.5918 74.4643 27.3909 74.0625 27.3909C73.125 27.3909 72.5223 28.1275 72.5223 29.3998C72.5223 30.6052 73.125 31.4088 74.0625 31.4088C74.5312 31.4088 74.8661 31.2079 75.2009 30.873L75.4018 31.0739C75.067 31.4757 74.6652 31.6766 74.0625 31.6766C72.9241 31.6766 72.1875 30.8061 72.1875 29.3998Z" fill="white" stroke="white" stroke-width="0.167411" stroke-miterlimit="10"/>
<path d="M78.415 27.4583H77.0088V27.1904H80.1561V27.4583H78.7499V31.6101H78.415V27.4583Z" fill="white" stroke="white" stroke-width="0.167411" stroke-miterlimit="10"/>
<path d="M85.7144 27.1904H86.0492L87.5894 31.6101H87.2546L86.3841 28.9985C86.1832 28.4628 86.0492 27.994 85.9153 27.4583C85.7814 27.994 85.5805 28.4628 85.4466 28.9985L84.576 31.6101H84.2412L85.7144 27.1904ZM84.8439 29.869H86.8528V30.1369H84.8439V29.869Z" fill="white" stroke="white" stroke-width="0.167411" stroke-miterlimit="10"/>
<path d="M89.4639 27.1904H90.6023C91.6067 27.1904 92.2094 27.5253 92.2094 28.3958C92.2094 29.2663 91.6067 29.6681 90.6692 29.6681H89.8656V31.5431H89.5308V27.1904H89.4639ZM90.5353 29.4672C91.4058 29.4672 91.8746 29.1994 91.8746 28.4628C91.8746 27.7261 91.4058 27.5253 90.5353 27.5253H89.7987V29.5342H90.5353V29.4672Z" fill="white" stroke="white" stroke-width="0.167411" stroke-miterlimit="10"/>
<path d="M94.3525 27.1904H95.4909C96.4954 27.1904 97.0981 27.5253 97.0981 28.3958C97.0981 29.2663 96.4954 29.6681 95.5579 29.6681H94.7543V31.5431H94.4195V27.1904H94.3525ZM95.424 29.4672C96.2945 29.4672 96.7633 29.1994 96.7633 28.4628C96.7633 27.7261 96.2945 27.5253 95.424 27.5253H94.6874V29.5342H95.424V29.4672Z" fill="white" stroke="white" stroke-width="0.167411" stroke-miterlimit="10"/>
<path d="M99.3076 27.1904H99.6424V31.3422H101.651V31.6101H99.3076V27.1904Z" fill="white" stroke="white" stroke-width="0.167411" stroke-miterlimit="10"/>
<path d="M103.594 27.1904H103.929V31.6101H103.594V27.1904Z" fill="white" stroke="white" stroke-width="0.167411" stroke-miterlimit="10"/>
<path d="M107.411 27.1904H107.746L109.286 31.6101H108.951L108.08 28.9985C107.879 28.4628 107.746 27.994 107.612 27.4583C107.478 27.994 107.277 28.4628 107.143 28.9985L106.272 31.6101H105.938L107.411 27.1904ZM106.54 29.869H108.549V30.1369H106.54V29.869Z" fill="white" stroke="white" stroke-width="0.167411" stroke-miterlimit="10"/>
<path d="M111.161 27.1904H111.495L113.37 30.2708L113.839 31.1413C113.839 30.7395 113.772 30.2708 113.772 29.869V27.1904H114.04V31.6101H113.705L111.83 28.5297L111.362 27.6592C111.362 28.061 111.428 28.4628 111.428 28.9315V31.677H111.161V27.1904Z" fill="white" stroke="white" stroke-width="0.167411" stroke-miterlimit="10"/>
<path d="M116.384 29.3998C116.384 27.9936 117.12 27.123 118.259 27.123C118.795 27.123 119.196 27.3909 119.397 27.6588L119.196 27.8597C118.928 27.5918 118.661 27.3909 118.259 27.3909C117.321 27.3909 116.719 28.1275 116.719 29.3998C116.719 30.6052 117.321 31.4088 118.259 31.4088C118.728 31.4088 119.062 31.2079 119.397 30.873L119.598 31.0739C119.263 31.4757 118.861 31.6766 118.259 31.6766C117.12 31.6766 116.384 30.8061 116.384 29.3998Z" fill="white" stroke="white" stroke-width="0.167411" stroke-miterlimit="10"/>
<path d="M121.674 27.1904H124.085V27.4583H122.009V29.1324H123.75V29.4003H122.009V31.3422H124.152V31.6101H121.674V27.1904Z" fill="white" stroke="white" stroke-width="0.167411" stroke-miterlimit="10"/>
<path d="M128.906 27.1904H130.179C131.049 27.1904 131.652 27.5253 131.652 28.3288C131.652 29.1324 131.049 29.5342 130.179 29.5342H129.241V31.5431H128.906V27.1904ZM130.045 29.3333C130.848 29.3333 131.25 28.9985 131.25 28.3958C131.25 27.7261 130.848 27.4583 130.045 27.4583H129.174V29.3333H130.045ZM130.112 29.5342L130.379 29.4672L131.719 31.677H131.384L130.112 29.5342Z" fill="white" stroke="white" stroke-width="0.167411" stroke-miterlimit="10"/>
<path d="M133.728 27.1904H136.138V27.4583H134.062V29.1324H135.803V29.4003H134.062V31.3422H136.205V31.6101H133.728V27.1904Z" fill="white" stroke="white" stroke-width="0.167411" stroke-miterlimit="10"/>
<path d="M138.416 27.1904H139.554C140.558 27.1904 141.161 27.5253 141.161 28.3958C141.161 29.2663 140.558 29.6681 139.621 29.6681H138.75V31.5431H138.416V27.1904ZM139.487 29.4672C140.357 29.4672 140.826 29.1994 140.826 28.4628C140.826 27.7261 140.357 27.5253 139.487 27.5253H138.75V29.5342H139.487V29.4672Z" fill="white" stroke="white" stroke-width="0.167411" stroke-miterlimit="10"/>
<path d="M144.241 27.1904H144.576L146.116 31.6101H145.781L144.91 28.9985C144.71 28.4628 144.576 27.994 144.442 27.4583C144.308 27.994 144.107 28.4628 143.973 28.9985L143.102 31.6101H142.768L144.241 27.1904ZM143.437 29.869H145.446V30.1369H143.437V29.869Z" fill="white" stroke="white" stroke-width="0.167411" stroke-miterlimit="10"/>
<path d="M148.058 27.1904H148.393V31.6101H148.058V27.1904Z" fill="white" stroke="white" stroke-width="0.167411" stroke-miterlimit="10"/>
<path d="M150.87 27.1904H152.142C153.013 27.1904 153.616 27.5253 153.616 28.3288C153.616 29.1324 153.013 29.5342 152.142 29.5342H151.205V31.5431H150.87V27.1904ZM152.075 29.3333C152.879 29.3333 153.281 28.9985 153.281 28.3958C153.281 27.7261 152.879 27.4583 152.075 27.4583H151.205V29.3333H152.075ZM152.075 29.5342L152.343 29.4672L153.683 31.677H153.348L152.075 29.5342Z" fill="white" stroke="white" stroke-width="0.167411" stroke-miterlimit="10"/>
<path d="M157.968 31.0074L158.169 30.8065C158.504 31.1413 158.973 31.4092 159.441 31.4092C160.111 31.4092 160.513 31.0744 160.513 30.5386C160.513 30.0029 160.178 29.802 159.709 29.6011L159.04 29.3333C158.638 29.1324 158.169 28.8645 158.169 28.2619C158.169 27.5922 158.705 27.1904 159.441 27.1904C159.977 27.1904 160.379 27.4583 160.647 27.7261L160.446 27.927C160.178 27.6592 159.843 27.4583 159.375 27.4583C158.772 27.4583 158.37 27.7931 158.37 28.2619C158.37 28.7976 158.839 28.9985 159.107 29.1324L159.776 29.4003C160.245 29.6011 160.714 29.869 160.714 30.5386C160.714 31.2083 160.178 31.744 159.308 31.744C158.772 31.677 158.303 31.4092 157.968 31.0074Z" fill="white" stroke="white" stroke-width="0.167411" stroke-miterlimit="10"/>
<path d="M162.991 27.1904H165.402V27.4583H163.326V29.1324H165.067V29.4003H163.326V31.3422H165.469V31.6101H162.991V27.1904Z" fill="white" stroke="white" stroke-width="0.167411" stroke-miterlimit="10"/>
<path d="M167.678 27.1904H168.951C169.821 27.1904 170.424 27.5253 170.424 28.3288C170.424 29.1324 169.821 29.5342 168.951 29.5342H168.013V31.5431H167.678V27.1904ZM168.884 29.3333C169.687 29.3333 170.089 28.9985 170.089 28.3958C170.089 27.7261 169.687 27.4583 168.884 27.4583H168.013V29.3333H168.884ZM168.884 29.5342L169.151 29.4672L170.491 31.677H170.156L168.884 29.5342Z" fill="white" stroke="white" stroke-width="0.167411" stroke-miterlimit="10"/>
<path d="M171.898 27.1904H172.233L173.036 29.7351C173.237 30.2708 173.304 30.6726 173.505 31.2083C173.706 30.6726 173.773 30.2708 173.974 29.7351L174.777 27.1904H175.112L173.639 31.6101H173.304L171.898 27.1904Z" fill="white" stroke="white" stroke-width="0.167411" stroke-miterlimit="10"/>
<path d="M177.054 27.1904H177.389V31.6101H177.054V27.1904Z" fill="white" stroke="white" stroke-width="0.167411" stroke-miterlimit="10"/>
<path d="M179.599 29.3998C179.599 27.9936 180.335 27.123 181.474 27.123C182.009 27.123 182.411 27.3909 182.612 27.6588L182.411 27.8597C182.143 27.5918 181.875 27.3909 181.474 27.3909C180.536 27.3909 179.933 28.1275 179.933 29.3998C179.933 30.6052 180.536 31.4088 181.474 31.4088C181.942 31.4088 182.277 31.2079 182.612 30.873L182.813 31.0739C182.478 31.4757 182.076 31.6766 181.474 31.6766C180.335 31.6766 179.599 30.8061 179.599 29.3998Z" fill="white" stroke="white" stroke-width="0.167411" stroke-miterlimit="10"/>
<path d="M184.888 27.1904H187.299V27.4583H185.223V29.1324H186.964V29.4003H185.223V31.3422H187.366V31.6101H184.888V27.1904Z" fill="white" stroke="white" stroke-width="0.167411" stroke-miterlimit="10"/>
<path d="M189.174 31.0074L189.375 30.8065C189.71 31.1413 190.179 31.4092 190.648 31.4092C191.317 31.4092 191.719 31.0744 191.719 30.5386C191.719 30.0029 191.384 29.802 190.915 29.6011L190.246 29.3333C189.844 29.1324 189.375 28.8645 189.375 28.2619C189.375 27.5922 189.911 27.1904 190.648 27.1904C191.183 27.1904 191.585 27.4583 191.853 27.7261L191.652 27.927C191.384 27.6592 191.049 27.4583 190.581 27.4583C189.978 27.4583 189.576 27.7931 189.576 28.2619C189.576 28.7976 190.045 28.9985 190.313 29.1324L190.982 29.4003C191.451 29.6011 191.92 29.869 191.92 30.5386C191.92 31.2083 191.384 31.744 190.514 31.744C190.045 31.677 189.509 31.4092 189.174 31.0074Z" fill="white" stroke="white" stroke-width="0.167411" stroke-miterlimit="10"/>
<path d="M0 29.333H14.4643H0Z" fill="white"/>
<path d="M0 29.333H14.4643" stroke="white" stroke-width="0.669643" stroke-miterlimit="10"/>
<path d="M195.536 29.333H210H195.536Z" fill="white"/>
<path d="M195.536 29.333H210" stroke="white" stroke-width="0.669643" stroke-miterlimit="10"/>
<path d="M87.5227 19.4895L84.4424 6.56543H87.121L89.0629 15.4717L91.4067 6.56543H94.487L96.7638 15.6056L98.7727 6.56543H101.384L98.237 19.4895H95.4915L92.9468 9.84668L90.4022 19.4895H87.5227Z" fill="white"/>
<path d="M63.8838 19.4895V6.56543H69.3749C70.7811 6.56543 71.7856 6.69936 72.3883 6.90025C72.9909 7.10114 73.5266 7.56989 73.8615 8.17257C74.1963 8.77525 74.3972 9.44489 74.3972 10.1815C74.3972 11.186 74.1293 11.9226 73.5266 12.5922C72.924 13.1949 72.1204 13.5967 70.982 13.7976C71.5177 14.1324 71.9865 14.4672 72.3883 14.869C72.7231 15.2708 73.2588 15.9404 73.8615 16.9449L75.4686 19.4895H72.3213L70.4463 16.677C69.7766 15.6726 69.3079 15.0699 69.04 14.802C68.7722 14.5342 68.5043 14.3333 68.2365 14.2663C67.9686 14.1994 67.4999 14.1324 66.8972 14.1324H66.3615V19.5565H63.8838V19.4895ZM66.4954 11.9895H68.4374C69.7097 11.9895 70.4463 11.9226 70.7811 11.8556C71.1159 11.7886 71.3168 11.5878 71.5177 11.3199C71.7186 11.052 71.7856 10.7172 71.7856 10.3154C71.7856 9.84668 71.6516 9.51186 71.4508 9.244C71.2499 8.97614 70.915 8.77525 70.4463 8.70829C70.2454 8.70829 69.5758 8.64132 68.5713 8.64132H66.5624V11.9895H66.4954Z" fill="white"/>
</g>
<defs>
<clipPath id="clip0_250_8327">
<rect width="210" height="31.6607" fill="white" transform="translate(0 0.169922)"/>
</clipPath>
</defs>
</svg>
