<svg width="105" height="24" viewBox="0 0 105 24" fill="none" xmlns="http://www.w3.org/2000/svg">
<path d="M31.0602 10.0569L26.1183 1.35513H22.8648V13.4023H25.3745V5.64585L30.0255 13.4023H32.2742L36.7335 5.51316V13.4023H39.2052V1.35513H35.9881L31.0602 10.0569ZM78.576 10.1377L70.2921 1.3552H66.7444V13.4024H69.4674V4.79286L77.5868 13.4024H81.2982V1.3552H78.576V10.1377ZM7.58782 1.18378L0.107178 13.4024H3.29377L4.37721 11.3559H13.4421L14.656 13.4057H17.9617L10.3786 1.18378H7.58782ZM5.91351 8.79018L8.8489 3.95964L11.8752 8.79018H5.91351ZM96.647 1.18378H93.8571L86.3756 13.4024H89.5631L90.6473 11.3559H99.7105L100.929 13.4024H104.234L96.647 1.18378ZM92.1844 8.79018L95.1223 3.95964L98.1477 8.79018H92.1844ZM51.5848 1.18378L44.1042 13.4024H47.2949L48.3742 11.3559H57.4333L58.6473 13.4057H61.9529L54.3706 1.18378H51.5848ZM49.9097 8.79018L52.8442 3.95964L55.8672 8.79018H49.9097ZM102.343 0.641436C101.876 0.642748 101.428 0.828908 101.098 1.15907C100.768 1.48924 100.582 1.93648 100.582 2.40274V2.41214C100.578 2.64538 100.62 2.87717 100.707 3.09388C100.793 3.3106 100.923 3.50788 101.087 3.67417C101.251 3.84046 101.446 3.97241 101.662 4.06227C101.878 4.15213 102.11 4.1981 102.344 4.19747C102.578 4.19685 102.809 4.14963 103.024 4.05861C103.24 3.9676 103.435 3.83463 103.598 3.66746C103.761 3.5003 103.889 3.30231 103.975 3.08513C104.06 2.86796 104.101 2.63596 104.095 2.40274V2.39335C104.095 1.92948 103.911 1.48452 103.583 1.15606C103.254 0.827597 102.809 0.642743 102.343 0.641436ZM102.334 3.77337C102.155 3.77449 101.977 3.7399 101.812 3.67162C101.646 3.60335 101.496 3.50275 101.37 3.37576C101.244 3.24877 101.144 3.09796 101.077 2.93214C101.01 2.76632 100.977 2.58883 100.98 2.41013V2.40073C100.975 2.22005 101.006 2.04017 101.072 1.87169C101.138 1.70322 101.237 1.54958 101.363 1.41976C101.489 1.28994 101.64 1.18657 101.806 1.11579C101.973 1.04501 102.152 1.00822 102.334 1.00759C102.515 1.00696 102.694 1.04251 102.862 1.11213C103.029 1.18175 103.181 1.28407 103.308 1.41301C103.435 1.54196 103.534 1.69492 103.601 1.86294C103.668 2.03096 103.701 2.21063 103.697 2.39134V2.40073C103.7 2.58062 103.666 2.75927 103.599 2.92619C103.532 3.09311 103.432 3.24492 103.305 3.37275C103.178 3.50058 103.027 3.60185 102.86 3.67058C102.693 3.73932 102.514 3.77448 102.334 3.77337Z" fill="#F42434"/>
<path d="M103.153 2.09113V2.0817C103.156 2.0102 103.145 1.93876 103.12 1.87172C103.094 1.80469 103.056 1.7435 103.006 1.69187C102.886 1.57318 102.7 1.5022 102.428 1.5022H101.634V3.20498H102.108V2.68738H102.316L102.662 3.20498H103.208L102.8 2.61239C102.906 2.57385 102.998 2.50244 103.062 2.40851C103.125 2.31459 103.157 2.20429 103.153 2.09113ZM102.678 2.12236C102.678 2.24599 102.585 2.32097 102.421 2.32097H102.11V1.90888H102.416C102.576 1.90888 102.677 1.97561 102.677 2.1124L102.678 2.12236Z" fill="#989898"/>
<path d="M52.8369 22.6596L53.2501 22.3068C53.5608 22.775 53.879 23.0272 54.4071 23.0272C54.9773 23.0272 55.3988 22.6151 55.3988 21.8165V18.4373H55.9773V21.8082C55.9773 22.3992 55.8045 22.8459 55.5153 23.1343C55.3659 23.2745 55.1902 23.3837 54.9983 23.4557C54.8064 23.5277 54.6021 23.5611 54.3972 23.5538C53.6385 23.5538 53.1551 23.178 52.8369 22.6596ZM57.9656 21.3697V18.4381H58.5341V21.3343C58.5341 22.4214 59.1126 23.0338 60.0804 23.0338C61.0117 23.0338 61.6042 22.4725 61.6042 21.3697V18.4381H62.1745V21.3227C62.1745 22.7923 61.3299 23.5555 60.0655 23.5555C58.8176 23.5602 57.9656 22.7964 57.9656 21.3697ZM63.9173 22.7461L64.271 22.3283C64.7983 22.8038 65.3041 23.0412 66.0065 23.0412C66.6858 23.0412 67.1337 22.681 67.1337 22.184V22.1699C67.1337 21.7009 66.8808 21.4347 65.8189 21.2114C64.6561 20.9592 64.1215 20.585 64.1215 19.7559V19.7417C64.1215 18.9497 64.8223 18.3662 65.7834 18.3662C66.4318 18.3478 67.0643 18.5681 67.5602 18.9852L67.2296 19.4244C66.7602 19.0428 66.2899 18.8772 65.7701 18.8772C65.109 18.8772 64.6958 19.2374 64.6958 19.6915V19.7056C64.6958 20.1812 64.9553 20.4474 66.0677 20.6856C67.1949 20.9328 67.7147 21.3449 67.7147 22.1122V22.1263C67.7147 22.9909 66.9924 23.553 65.9883 23.553C65.1809 23.5538 64.5239 23.286 63.9173 22.7461ZM70.8228 18.9639H69.1254V18.4381H73.0987V18.9639H71.4013V23.4805H70.8228V18.9639ZM77.7067 18.4381H79.881C80.5016 18.4381 81 18.6252 81.3181 18.9425C81.4455 19.0744 81.5455 19.2301 81.6125 19.4007C81.6794 19.5713 81.712 19.7533 81.7082 19.9364V19.9506C81.7082 20.7863 81.1297 21.2767 80.3355 21.4209L81.8884 23.4814H81.1884L79.7216 21.5223H78.2769V23.4814H77.7067V18.4381ZM79.8298 21.0096C80.5884 21.0096 81.1305 20.6205 81.1305 19.9727V19.9586C81.1305 19.3388 80.6537 18.9646 79.8372 18.9646H78.2769V21.0096H79.8298ZM83.7015 18.4381H84.2725V23.4805H83.7015V18.4381ZM86.2509 20.9741V20.96C86.2509 19.577 87.2699 18.3523 88.7863 18.3523C89.6392 18.3523 90.1665 18.5995 90.6722 19.0223L90.3036 19.4542C89.8873 19.0666 89.3341 18.8592 88.7649 18.8773C87.6451 18.8773 86.8435 19.821 86.8435 20.9452V20.9593C86.8435 22.1626 87.6162 23.056 88.8442 23.056C89.3734 23.0542 89.8868 22.8767 90.3036 22.5516V21.2989H88.7649V20.787H90.8524V22.7972C90.2929 23.2927 89.5709 23.5668 88.8227 23.5679C87.2335 23.5679 86.2509 22.4148 86.2509 20.9741ZM92.8605 18.4381H93.4308V20.6782H96.3488V18.4381H96.9198V23.4805H96.3488V21.2115H93.4308V23.4805H92.8605V18.4381ZM100.408 18.9639H98.7107V18.4381H102.684V18.9639H100.987V23.4805H100.408V18.9639ZM103.305 22.7247H103.966V23.4805H103.305V22.7247Z" fill="#0E0D0D"/>
</svg>
