<svg width="105" height="14" viewBox="0 0 105 14" fill="none" xmlns="http://www.w3.org/2000/svg">
<path fill-rule="evenodd" clip-rule="evenodd" d="M98.6808 10.4109L99.6991 11.8756C100.166 12.3374 99.8669 13.0028 99.3757 13.1463C99.2678 13.1801 99.1959 13.2343 99.1959 13.3199V13.5068L104.779 13.5055V13.2981C104.779 13.2403 104.755 13.1715 104.695 13.1486C104.659 13.139 104.623 13.1294 104.587 13.1173C104.012 12.9256 103.521 12.6351 103.054 12.0287L100.322 8.40107L101.544 6.87C102.347 5.95978 103.365 5.33891 103.964 5.21474C104.084 5.19062 104.108 5.13637 104.108 5.03269V4.86994H103.916L100.765 4.87107H100.586C100.586 4.87107 100.586 4.95787 100.586 5.03262C100.586 5.12424 100.622 5.18452 100.694 5.2231C100.718 5.24239 100.718 5.24359 100.741 5.26048C100.981 5.40636 101.185 5.79576 100.646 6.42868C100.646 6.44314 100.262 6.91814 99.7111 7.58362V7.57397L98.9204 6.49858C98.4411 6.0236 98.7766 5.32676 99.2798 5.21224C99.3996 5.18933 99.4236 5.13629 99.4236 5.03261V4.86865L99.2319 4.86977H93.9722C93.9722 4.86977 93.9602 4.95776 93.9602 5.03252C93.9602 5.16393 94.0561 5.23022 94.1759 5.26278C94.739 5.45325 95.2302 5.7438 95.6975 6.34539L98.0697 9.58357L96.5361 11.4462C95.7334 12.3456 95.0505 13.0255 94.4994 13.1473C94.3795 13.1726 94.3196 13.2341 94.3196 13.3197V13.5065L97.5545 13.5052V13.3027C97.5545 13.2436 97.5306 13.1845 97.4706 13.152C97.4227 13.1339 97.3988 13.1243 97.3748 13.1038C97.1472 12.9495 96.9675 12.5637 97.4946 11.9464C97.4946 11.9331 98.1296 11.0663 98.6808 10.4009V10.4105" fill="#041E41"/>
<path d="M28.196 3.01943C27.9085 2.32502 27.1656 2.02966 26.3749 2.02966H23.164V6.35529L25.692 6.3613C26.5546 6.3613 27.3334 6.20096 27.4891 5.54752C27.5011 5.47037 27.561 5.41373 27.6329 5.41252L27.7767 5.41363V8.46012L27.6329 8.46123C27.561 8.46235 27.5131 8.39613 27.4772 8.30933C27.2735 7.74632 26.5067 7.47507 25.692 7.47507H23.164V10.9423C23.164 11.9755 23.5354 12.2552 24.5657 12.2552H26.3749C27.2255 12.2552 28.1721 11.8356 28.4955 11.0207C28.5195 10.9592 28.5674 10.929 28.6393 10.929H28.7591V13.4969H19.2102V13.3306C19.2102 13.245 19.2701 13.1666 19.3899 13.157C19.977 13.1136 20.4323 12.5011 20.4323 11.5584V2.6624C20.4323 1.72084 19.977 1.1048 19.3899 1.06019C19.2701 1.05053 19.2102 0.972171 19.2102 0.886591V0.720215H28.4596V3.11208H28.3398C28.2799 3.10967 28.22 3.07128 28.196 3.01943Z" fill="#041E41"/>
<path d="M34.5341 13.4972L34.5461 13.3309C34.5461 13.2453 34.4861 13.1669 34.3544 13.1572C33.7793 13.1138 33.312 12.4942 33.312 11.5526V2.32755C33.312 1.61868 33.312 0.218994 33.312 0.218994L29.6218 0.720519V0.886895C29.6218 0.972475 29.6817 1.05083 29.8015 1.06048C30.3886 1.10509 30.8439 1.71753 30.8439 2.65909C30.8439 2.63738 30.8559 11.5562 30.8559 11.5562C30.8559 12.4966 30.3886 13.1138 29.8135 13.1572C29.6817 13.1669 29.6218 13.2453 29.6218 13.3309L29.6338 13.4972H34.5341Z" fill="#041E41"/>
<path d="M83.4169 13.4972L83.4289 13.3309C83.4289 13.2453 83.369 13.1669 83.2372 13.1572C82.6621 13.1138 82.1948 12.4942 82.1948 11.5526V2.32755C82.1948 1.61868 82.1948 0.218994 82.1948 0.218994L78.5046 0.720519V0.886895C78.5046 0.972475 78.5645 1.05083 78.6843 1.06048C79.2594 1.10509 79.7267 1.71753 79.7267 2.65909C79.7267 2.63738 79.7387 11.5562 79.7387 11.5562C79.7387 12.4966 79.2714 13.1138 78.6963 13.1572C78.5646 13.1669 78.5046 13.2453 78.5046 13.3309V13.4972H83.4169Z" fill="#041E41"/>
<path d="M64.4745 4.71817C64.4745 4.71817 64.4745 5.9382 64.4745 6.64828C64.8579 5.93699 65.6127 4.5542 67.2421 4.5542C67.5416 4.5542 67.7813 4.61931 67.949 4.68199L67.2661 7.05939C67.1822 7.05939 66.5472 7.05939 66.2237 7.05939C65.1694 7.05939 64.5104 7.74656 64.5104 8.59289V11.5514C64.5104 12.4929 64.9777 13.1138 65.5528 13.1572C65.6846 13.1668 65.7445 13.2452 65.7325 13.3308V13.4972H60.8562V13.3308C60.8562 13.2452 60.9161 13.1668 61.0479 13.1572C61.623 13.1138 62.0902 12.4953 62.0902 11.5538C62.0902 10.8642 62.0902 7.98286 62.0902 7.15583C62.0902 6.21547 61.6949 5.64886 61.0479 5.55724C60.952 5.54519 60.8562 5.4391 60.8562 5.34746C60.8562 5.25584 60.8562 5.21846 60.8562 5.21846L64.4745 4.71817Z" fill="#041E41"/>
<path d="M93.7923 13.5057H91.5398C90.773 13.5057 90.5454 13.0211 90.5454 12.6172C89.551 13.3804 88.8321 13.7071 87.5381 13.7529C86.0884 13.7987 84.7585 12.8933 84.7585 11.2718L84.7466 7.16198C84.7466 6.21923 84.2793 5.6068 83.7042 5.56219C83.5844 5.55253 83.5125 5.47417 83.5245 5.38979V5.22222L87.2985 4.7207V10.065C87.2985 12.4545 89.6349 12.2001 90.5454 11.5262V7.15957C90.5454 6.21802 90.0782 5.6068 89.5031 5.56219C89.3713 5.55253 89.3114 5.47417 89.3114 5.38979V5.22222L93.0854 4.7207V11.5431C93.0854 12.2797 93.2292 13.038 93.8043 13.1609C93.9001 13.1814 93.972 13.2236 93.972 13.3575C93.972 13.4286 93.972 13.5057 93.972 13.5057H93.7923Z" fill="#041E41"/>
<path d="M52.9248 7.4246V5.17861C52.9248 5.17861 51.6308 4.58667 49.5461 4.58667C46.8264 4.58667 44.9454 5.97308 44.9214 9.33906C44.8975 11.9986 46.443 13.778 49.4383 13.778C51.4152 13.778 52.5654 12.7955 52.9847 12.4C53.2483 12.2023 53.2483 12.0239 53.2483 11.7984C53.2483 11.573 53.2603 11.1764 53.2603 11.1764C52.4575 11.7623 51.3673 12.1649 50.3129 12.1649C48.1443 12.1649 47.5093 10.6206 47.5093 8.90746C47.5093 8.20099 47.737 5.79104 49.7618 5.76814C51.0677 5.76814 51.8105 6.16476 52.5773 7.45112C52.7091 7.64642 52.793 7.68863 52.9248 7.6609L52.9248 7.4246Z" fill="#041E41"/>
<path d="M73.0771 5.75021C71.4597 5.75021 71.0044 7.0233 71.0044 9.02576C71.0044 10.64 71.0283 12.6642 73.1011 12.6642C75.0899 12.6184 75.066 10.9342 75.066 9.09329C75.066 6.94374 74.5388 5.76227 73.0771 5.75021ZM72.9333 4.54343C75.03 4.50966 77.8815 5.04254 77.9055 9.00286C77.9055 12.094 76.7553 13.7782 72.9693 13.7782C70.3454 13.7782 68.2128 13.185 68.2128 9.2066C68.1888 5.16069 71.1242 4.56754 72.9333 4.54463V4.54343Z" fill="#041E41"/>
<path d="M43.8312 8.86652H37.8526C37.7328 11.5947 39.2065 12.1397 40.6322 12.1626C41.8423 12.1626 42.7648 11.7455 43.5556 11.1873C43.5556 11.1873 43.5556 11.737 43.5556 11.8781C43.5556 12.0203 43.4837 12.1324 43.4478 12.1999C42.9086 12.9305 41.5308 13.7792 39.6378 13.7792C37.0499 13.7792 35.2407 12.4374 35.2407 9.36685C35.2407 5.99364 37.0978 4.60481 39.6857 4.59033C42.3575 4.59033 43.7353 5.85741 43.8312 8.62059V8.86652ZM39.6617 5.59098C38.835 5.63678 38.0802 5.99966 37.8526 7.79717H41.387C41.411 5.95385 40.4884 5.63678 39.6378 5.59098H39.6617Z" fill="#041E41"/>
<path d="M59.9936 5.26926V4.87624H57.2379V2.30957L53.5957 6.10593H54.7579V11.1392C54.7579 11.9976 55.0215 13.8072 57.4296 13.8301C58.496 13.8301 59.2508 13.4467 59.8379 12.9271C60.0535 12.7511 60.0535 12.639 60.0655 12.4642C60.0775 12.3135 60.0655 12.1374 60.0655 11.8421C58.5439 12.7053 57.2379 12.1628 57.2379 10.4882V6.10593H59.1909C59.5743 6.04324 59.9936 5.83228 59.9936 5.26926Z" fill="#041E41"/>
<path fill-rule="evenodd" clip-rule="evenodd" d="M13.0757 0.487549H0.0283203V13.6103H13.0757V0.487549ZM8.2713 12.8664V1.23017C10.7634 1.97281 12.5845 4.31164 12.5845 7.04468C12.5845 9.78738 10.7634 12.1153 8.2713 12.8664ZM0.531526 6.765C0.675294 3.54489 3.32312 0.983041 6.55801 0.983041C6.94142 0.983041 7.3248 1.02042 7.69622 1.09274C7.69622 4.24171 5.16822 6.765 2.02915 6.765H0.531526ZM2.02915 7.3316C5.16822 7.3316 7.69622 9.85007 7.69622 13.005C7.3248 13.0762 6.94142 13.1136 6.55801 13.1136C3.32312 13.1136 0.675294 10.5517 0.531526 7.3316H2.02915Z" fill="#041E41"/>
</svg>
