<svg width="118" height="29" viewBox="0 0 118 29" fill="none" xmlns="http://www.w3.org/2000/svg">
<path d="M52.2181 12.0811H43.9898C43.9508 12.0811 43.9314 12.12 43.9314 12.1394V23.6163C43.9314 23.6552 43.9703 23.6746 43.9898 23.6746H51.3427C51.3622 23.6746 51.3816 23.6552 51.4011 23.6357L52.2764 21.9239C52.2959 21.885 52.2764 21.8267 52.2181 21.8267H46.0711V18.7532H48.8723C48.8917 18.7532 48.9112 18.7337 48.9306 18.7143L49.8254 16.983C49.8449 16.9441 49.806 16.8858 49.7671 16.8858H46.0906V13.929H51.3427C51.3622 13.929 51.3816 13.9096 51.4011 13.8901L52.2959 12.1783C52.2959 12.1394 52.2764 12.0811 52.2181 12.0811Z" fill="#131111"/>
<path d="M78.4204 19.0645L71.0091 11.906C70.9313 11.8282 70.7756 11.8866 70.7756 12.0033V23.6552C70.7756 23.6941 70.8145 23.7136 70.834 23.7136H72.857C72.8959 23.7136 72.9154 23.6747 72.9154 23.6552V16.7497L80.3267 23.9275C80.4045 24.0054 80.5601 23.9665 80.5601 23.8303V13.8707C80.5601 13.8513 80.5601 13.8318 80.5407 13.8318L78.5371 11.906C78.4982 11.8671 78.4204 11.906 78.4204 11.9449V19.0645Z" fill="#131111"/>
<path d="M86.2791 23.6557C86.2596 23.6752 86.2402 23.6946 86.2207 23.6946H83.7503C83.7114 23.6946 83.6725 23.6363 83.6919 23.5973L89.7611 11.926C89.8 11.8287 89.9556 11.8287 89.9945 11.926L96.0636 23.5973C96.083 23.6363 96.0441 23.6946 96.0052 23.6946H93.5932C93.5737 23.6946 93.5348 23.6752 93.5348 23.6557C93.5348 23.6557 89.9167 16.4194 89.8972 16.4194L86.2791 23.6557Z" fill="#131111"/>
<path d="M115.088 23.5968L110.905 19.6674C112.189 18.9477 113.045 17.5861 113.006 16.0104C112.948 13.8123 111.061 12.0811 108.843 12.0811H104.272C104.214 12.0811 104.194 12.1394 104.214 12.1783L106.354 14.2014C106.373 14.2208 106.392 14.2403 106.412 14.2403H108.863C109.874 14.2403 110.75 15.0378 110.808 16.0299C110.867 17.0997 110.011 17.9751 108.96 17.9946H106.237C106.179 17.9946 106.159 18.0529 106.179 18.0918L112.014 23.6552C112.034 23.6746 112.053 23.6746 112.073 23.6746H115.049C115.088 23.6941 115.107 23.6357 115.088 23.5968Z" fill="#131111"/>
<path d="M101.413 11.9254V23.6357C101.413 23.6746 101.374 23.6941 101.355 23.6941H99.2732C99.2343 23.6941 99.2148 23.6552 99.2148 23.6357V13.9096C99.2148 13.8901 99.2148 13.8707 99.2343 13.8707L101.316 11.8865C101.355 11.8282 101.413 11.8671 101.413 11.9254Z" fill="#131111"/>
<path d="M64.0449 19.0645L56.6336 11.906C56.5558 11.8282 56.4001 11.8866 56.4001 12.0033V23.6552C56.4001 23.6941 56.4391 23.7136 56.4585 23.7136H58.4621C58.501 23.7136 58.5204 23.6747 58.5204 23.6552V16.7497L65.9318 23.9275C66.0096 24.0054 66.1652 23.9665 66.1652 23.8303V13.8707C66.1652 13.8513 66.1652 13.8318 66.1457 13.8318L64.1422 11.906C64.1033 11.8671 64.0254 11.906 64.0254 11.9449V19.0645H64.0449Z" fill="#131111"/>
<path d="M30.3147 20.8158C30.3147 22.3914 31.618 23.6753 33.2131 23.6947H33.2325H36.4227H36.4422C38.0178 23.6753 39.3406 22.4109 39.3406 20.8158V11.9261C39.3406 11.8677 39.2433 11.8483 39.2044 11.8872L37.1619 13.8324C37.1425 13.8519 37.123 13.8713 37.123 13.8713V20.3489C37.123 21.1465 36.5005 21.8079 35.703 21.8079H33.9523C33.1547 21.8079 32.5323 21.1854 32.5323 20.3489V18.8122C32.5323 18.7538 32.435 18.7149 32.3961 18.7538L30.3536 20.6991C30.3341 20.7185 30.3147 20.7185 30.3147 20.738V20.8158Z" fill="#131111"/>
<path d="M0.688721 20.6795L9.88965 11.9065V23.3833C9.88965 23.6362 10.376 23.8307 10.979 23.8307C11.582 23.8307 12.0683 23.6362 12.0683 23.3833V0.235107L21.2887 9.00809V27.2349C21.2887 27.7406 20.8802 28.1491 20.3744 28.1686H1.62243C1.11667 28.1686 0.688721 27.7601 0.688721 27.2349V20.6795Z" fill="#131111"/>
<path d="M117.403 13.2093C117.403 13.8512 116.897 14.3375 116.255 14.3375C115.613 14.3375 115.107 13.8318 115.107 13.2093C115.107 12.5868 115.613 12.0811 116.255 12.0811C116.897 12.0811 117.403 12.5868 117.403 13.2093ZM115.38 13.2093C115.38 13.715 115.749 14.1041 116.255 14.1041C116.741 14.1041 117.111 13.715 117.111 13.2093C117.111 12.7035 116.741 12.3145 116.255 12.3145C115.749 12.3145 115.38 12.7035 115.38 13.2093ZM116.08 13.7929H115.827V12.6646C115.924 12.6452 116.08 12.6257 116.255 12.6257C116.469 12.6257 116.566 12.6646 116.644 12.7035C116.702 12.7424 116.761 12.8397 116.761 12.9564C116.761 13.0731 116.663 13.1704 116.527 13.2093V13.2287C116.644 13.2676 116.702 13.3455 116.741 13.5011C116.78 13.6761 116.8 13.7345 116.819 13.7734H116.547C116.508 13.7345 116.488 13.6372 116.449 13.5011C116.43 13.3844 116.352 13.326 116.216 13.326H116.099V13.7929H116.08ZM116.08 13.1509H116.197C116.333 13.1509 116.449 13.112 116.449 12.9953C116.449 12.8981 116.372 12.8202 116.216 12.8202C116.138 12.8202 116.099 12.8202 116.08 12.8397V13.1509Z" fill="#131111"/>
</svg>
