<svg width="136" height="29" viewBox="0 0 136 29" fill="none" xmlns="http://www.w3.org/2000/svg">
<path fill-rule="evenodd" clip-rule="evenodd" d="M53.1002 0.235107C35.4322 3.70505 18.7891 9.98805 5.10645 19.5309L5.1678 19.6731C37.776 2.94133 71.986 1.92641 86.0484 1.92641C97.6911 1.92641 110.485 3.52098 110.485 6.92306C110.485 9.70219 104.673 12.0995 101.349 13.3663L101.383 13.4775C104.711 12.9563 117.314 10.3425 117.314 4.71059C117.314 2.90307 115.748 1.41245 113.03 0.235107L126.052 0.23655C127.916 0.23655 129.528 1.84917 129.528 3.71299V24.5694C129.528 26.4333 127.916 28.0459 126.052 28.0459H4.26477C2.40095 28.0459 0.78833 26.4333 0.78833 24.5694V3.71443C0.78833 1.85061 2.40095 0.237993 4.26477 0.237993L53.1002 0.235107ZM30.699 12.464H25.942L22.5536 24.8033H27.3099L28.7435 19.5049L32.3924 24.8033H37.8987L33.0768 18.3211L40.2772 12.4647H35.2279L29.3311 17.2679L30.699 12.464ZM45.8413 15.3543C42.746 15.3543 38.8927 16.4609 37.8619 20.2001C36.8816 23.7603 40.2844 25.0314 43.1841 25.0314C46.8093 25.0314 49.4483 23.4203 50.2142 22.1541H45.7019C45.7019 22.1541 45.0162 23.5827 43.5826 23.5827C41.5975 23.5827 42.3302 20.7884 42.3302 20.7884H50.9801C52.1192 18.041 50.6856 15.3543 45.8413 15.3543ZM45.5179 16.7735C47.0691 16.7735 46.7638 19.0191 46.7638 19.0191H42.855C42.855 19.0199 43.9053 16.7735 45.5179 16.7735ZM121.416 15.3543C118.322 15.3543 114.468 16.4609 113.438 20.2001C112.457 23.7603 115.859 25.0314 118.76 25.0314C122.384 25.0314 125.024 23.4203 125.789 22.1541H121.276C121.276 22.1541 120.591 23.5827 119.157 23.5827C117.172 23.5827 117.905 20.7884 117.905 20.7884H126.554C127.696 18.041 126.262 15.3543 121.416 15.3543ZM121.094 16.7735C122.646 16.7735 122.34 19.0191 122.34 19.0191H118.431C118.431 19.0199 119.481 16.7735 121.094 16.7735ZM58.5697 15.5752H54.188L51.6471 24.8185H56.241C56.241 24.8185 57.2667 21.101 57.5237 20.1633C57.7807 19.2256 58.5863 17.5451 60.2314 17.5451C61.8765 17.5451 61.0095 19.5215 60.8305 20.1633C60.6508 20.805 59.5644 24.8185 59.5644 24.8185H64.1416C64.1416 24.8185 65.4453 20.1221 65.6893 19.209C65.9333 18.2966 67.0088 15.3673 62.2684 15.3673C59.3854 15.3673 58.286 16.5273 58.286 16.5273L58.5697 15.5752ZM73.6867 15.5723H69.2877L66.7468 24.8185H71.3573C71.3573 24.8185 72.4119 21.0021 72.6385 20.1633C72.8667 19.3245 73.3438 17.4816 74.7283 17.4816C75.8688 17.4816 75.4133 18.4193 74.9203 20.1633C74.716 20.8851 73.6376 24.8185 73.6376 24.8185H78.2481C78.2481 24.8185 78.9923 21.9831 79.403 20.5581C79.8953 18.8466 80.314 17.4946 81.6206 17.4946C82.8051 17.4946 82.2803 18.4409 81.461 21.4012C81.269 22.0935 80.5277 24.8358 80.5277 24.8358H85.1223C85.1223 24.8358 86.0094 21.5283 86.405 20.1633C86.9298 18.3529 88.3143 15.4532 83.7377 15.3601C81.1311 15.3066 79.8758 16.6089 79.8758 16.6089C79.8758 16.6089 79.5019 15.3601 76.8628 15.3601C74.4352 15.3601 73.4254 16.4609 73.4254 16.4609L73.6867 15.5723ZM96.2972 15.3593C92.2087 15.3593 88.3215 17.3639 88.1677 21.2821C88.0378 24.6055 92.1437 25.0156 93.6574 25.0156C97.1765 25.0156 101.444 23.5675 101.802 19.0437C101.998 16.5764 99.1955 15.3593 96.2972 15.3593ZM97.0458 20.1957C96.5737 22.0062 95.4007 23.5906 94.0133 23.5906C92.5147 23.5906 92.4808 21.9239 92.9204 20.1633C93.36 18.4034 94.6023 16.8067 95.8894 16.8067C97.5006 16.8059 97.5179 18.3868 97.0458 20.1957ZM104.783 15.5658L102.266 24.7947H106.859C106.859 24.7947 107.739 21.62 108.032 20.5581C108.325 19.4963 108.839 17.6382 110.427 17.6382C111.445 17.6382 111.894 18.625 111.894 18.625H112.235L113.433 15.6885C113.433 15.6885 113.067 15.3427 111.551 15.3427C110.037 15.3427 108.864 16.4537 108.864 16.4537L109.108 15.5658H104.783ZM131.303 25.6753C131.303 24.4951 132.19 23.6072 133.326 23.6072C134.45 23.6072 135.342 24.4951 135.342 25.6753C135.342 26.8722 134.45 27.7564 133.326 27.7564C132.189 27.7564 131.303 26.8729 131.303 25.6753ZM133.325 28.1686C134.68 28.1686 135.837 27.1169 135.837 25.676C135.837 24.2489 134.68 23.1958 133.325 23.1958C131.959 23.1958 130.806 24.2489 130.806 25.676C130.806 27.1169 131.96 28.1686 133.325 28.1686ZM132.801 25.8702H133.299L134.052 27.1169H134.542L133.725 25.8507C134.145 25.7988 134.47 25.5786 134.47 25.0625C134.47 24.4958 134.132 24.2489 133.455 24.2489H132.367V27.1169H132.801V25.8702ZM132.801 25.5064V24.6113H133.39C133.692 24.6113 134.012 24.6777 134.012 25.0358C134.012 25.4797 133.685 25.5064 133.318 25.5064H132.801Z" fill="#131111"/>
</svg>
