<svg width="106" height="10" viewBox="0 0 106 10" fill="none" xmlns="http://www.w3.org/2000/svg">
<g clip-path="url(#clip0_73_5213)">
<path d="M9.70411 3.80082L12.5427 0.581543H9.32587L7.02592 3.71193C6.80813 3.98083 6.38632 4.17578 6.06543 4.17578H5.52747V0.581543H1.10327V9.20039H5.51295V6.55625H6.21208C6.53225 6.55625 6.69197 6.64663 6.86693 6.97603L8.10402 9.20039H13.4306L10.9564 4.87939C10.7524 4.52086 10.1992 4.2206 9.61772 4.2206C9.47252 4.2206 9.32587 4.23628 9.70411 3.80082Z" fill="#B42C2C"/>
<path d="M14.8558 9.19163H19.0194V4.19092H14.8558V9.19163Z" fill="#B42C2C"/>
<path d="M17.0063 3.76969C18.1578 3.68604 19.0536 3.06982 19.0079 2.3931C18.9607 1.71712 17.9901 1.23535 16.8394 1.31901C15.6879 1.40267 14.7921 2.01888 14.8385 2.69411C14.885 3.37083 15.8556 3.85186 17.0063 3.76969Z" fill="#B42C2C"/>
<path d="M20.6486 4.16002H22.0461V2.48315H25.9752V4.16002H27.6058V5.807H26.034V6.79519C26.034 7.78338 27.1397 7.72288 27.6341 7.27547V8.68194C26.1211 9.37061 23.6324 9.55062 22.6283 8.84627C22.1042 8.4728 22.0461 8.17253 22.0461 7.72288V5.83688H20.6486" fill="#B42C2C"/>
<path d="M37.1959 4.44553C35.0419 3.33708 32.1089 3.53203 30.662 4.34096C28.3402 5.63614 28.3758 7.74995 30.6322 8.95177C32.2621 9.8212 36.1331 9.58068 37.1814 8.59249V7.20096C35.6394 8.00914 34.5664 7.89187 33.9217 7.6648C32.9176 7.31225 32.8937 5.85424 34.183 5.59804C35.0121 5.43372 36.0612 5.44866 37.1959 6.06263" fill="#B42C2C"/>
<path d="M38.5935 1.30176V9.19235H42.5081V6.76557C42.5661 5.23809 44.4298 5.52267 44.4298 6.6468V9.19235H48.3291V6.07839C48.3291 4.60992 45.7685 2.96293 42.5378 4.63905L42.5952 1.30176" fill="#B42C2C"/>
<path d="M60.9325 4.17597V9.19162H65.1244V6.49669C65.1244 5.56751 67.0156 5.11935 67.0156 6.52657V9.16175H70.7131V6.10754C70.7131 4.67492 68.7246 2.82552 65.1244 4.7302V4.17597" fill="#B42C2C"/>
<path d="M85.6307 9.18649H89.7929V4.18652H85.6307V9.18649Z" fill="#B42C2C"/>
<path d="M87.7819 3.76408C88.9326 3.68117 89.8277 3.06569 89.782 2.38748C89.7362 1.71151 88.7648 1.23048 87.6134 1.31414C86.4627 1.39705 85.5676 2.01327 85.614 2.68924C85.659 3.36671 86.6297 3.84773 87.7819 3.76408Z" fill="#B42C2C"/>
<path fill-rule="evenodd" clip-rule="evenodd" d="M103.254 2.7604V2.19647H103.62C103.805 2.19647 104.004 2.23904 104.004 2.46387C104.004 2.74322 103.802 2.7604 103.575 2.7604H103.254ZM103.579 4.45146C104.414 4.45146 105.129 3.78295 105.129 2.86945C105.129 1.96343 104.414 1.29492 103.579 1.29492C102.734 1.29492 102.021 1.96343 102.021 2.86945C102.021 3.78295 102.734 4.45146 103.579 4.45146ZM102.329 2.86945C102.329 2.12178 102.877 1.55784 103.579 1.55784C104.273 1.55784 104.821 2.12178 104.821 2.86945C104.821 3.62908 104.273 4.18854 103.579 4.18854C102.877 4.18854 102.329 3.62908 102.329 2.86945ZM103.254 2.99419H103.562L104.03 3.78295H104.33L103.826 2.98224C104.086 2.94863 104.285 2.80597 104.285 2.48105C104.285 2.12178 104.078 1.96343 103.659 1.96343H102.986V3.78295H103.254" fill="#B42C2C"/>
<path fill-rule="evenodd" clip-rule="evenodd" d="M54.1997 5.98926H55.7577C55.7831 5.47986 55.3627 5.22515 54.917 5.22515C54.5445 5.22515 54.1997 5.5553 54.1997 5.98926ZM59.5074 7.27548C56.859 7.06559 54.0349 7.24486 54.0349 7.24486C54.8495 8.6222 58.1687 8.41306 59.2737 7.5145L59.1575 8.68195C56.9454 10.0302 50.1929 9.97041 50.0761 6.82583C49.973 4.04948 53.9768 3.65137 54.8495 3.65137C56.9156 3.65137 59.943 4.63956 59.5074 7.27548Z" fill="#B42C2C"/>
<path fill-rule="evenodd" clip-rule="evenodd" d="M75.5742 5.748L76.796 3.41159L77.7856 5.748H75.5742ZM71.6299 9.16969H73.9001L74.8758 7.24559H78.4266L79.2717 9.16969H84.6549L80.4638 0.5979H75.1074C75.6323 0.807788 75.7775 1.16632 75.6323 1.46509" fill="#B42C2C"/>
<path fill-rule="evenodd" clip-rule="evenodd" d="M97.2533 6.00119C96.5527 5.46639 95.2075 5.60009 95.2075 6.45607C95.2075 7.68552 96.8054 7.47115 97.2533 7.09694V6.00119ZM101.189 1.31494V9.16146H97.2599V8.62218C95.3098 10.1795 90.9423 9.34072 90.9423 6.82581C90.9423 3.74023 95.6866 3.32195 97.2874 4.39977V1.31494" fill="#B42C2C"/>
</g>
<defs>
<clipPath id="clip0_73_5213">
<rect width="104.751" height="9.47213" fill="white" transform="translate(0.740845 0.313477)"/>
</clipPath>
</defs>
</svg>
