<svg width="64" height="29" viewBox="0 0 64 29" fill="none" xmlns="http://www.w3.org/2000/svg">
<g clip-path="url(#clip0_197_5180)">
<path d="M14.4607 28.8742C21.9988 28.8742 28.1211 22.6281 28.1211 14.9105C28.1211 7.19252 21.9988 0.940674 14.4607 0.940674C6.91089 0.940674 0.800293 7.19252 0.800293 14.9105C0.800293 22.6281 6.91089 28.8742 14.4607 28.8742Z" fill="#A50034"/>
<path d="M13.9111 8.77979V21.035H17.7187V19.9331H15.0086V8.77979H13.9111Z" fill="white"/>
<path d="M10.0985 12.1233C11.0043 12.1233 11.7345 11.3696 11.7345 10.4492C11.7345 9.52806 11.0043 8.77148 10.0985 8.77148C9.19261 8.77148 8.4624 9.52806 8.4624 10.4492C8.4624 11.3703 9.19261 12.1233 10.0985 12.1233Z" fill="white"/>
<path d="M15.0077 3.22013C14.8649 3.2129 14.5935 3.20386 14.4638 3.20386C8.15843 3.20386 3.02686 8.45646 3.02686 14.9043C3.02686 18.0362 4.21617 20.9717 6.37038 23.1792C8.53342 25.3817 11.4037 26.5986 14.4638 26.5986C17.5122 26.5986 20.3817 25.3817 22.5409 23.1792C24.7004 20.9717 25.8954 18.0362 25.8954 14.9043V14.3839H25.4327H17.7288V15.4609H24.8061C24.8061 15.4844 24.8061 15.5987 24.8011 15.6283C24.4413 21.1406 19.9421 25.5065 14.4638 25.5065C11.6907 25.5065 9.09044 24.4031 7.13345 22.3992C5.1701 20.4036 4.08823 17.7451 4.08823 14.904C4.08823 12.0791 5.1701 9.40688 7.13345 7.40515C9.09044 5.40522 11.6907 4.30183 14.4638 4.30183C14.5832 4.30183 14.8738 4.30183 15.0077 4.30906V3.22013Z" fill="white"/>
<path d="M38.3944 5.6425H34.2896V23.8255H46.8974V20.2861H38.3944V5.6425ZM55.9274 16.8963H59.2706V20.0756C58.6542 20.3157 57.4521 20.5551 56.3084 20.5551C52.6139 20.5551 51.3832 18.6351 51.3832 14.7355C51.3832 11.0166 52.5552 8.82394 56.2497 8.82394C58.3029 8.82394 59.4756 9.48431 60.4419 10.7447L62.994 8.34367C61.4396 6.06527 58.7121 5.37524 56.1621 5.37524C50.4138 5.37524 47.3943 8.58525 47.3943 14.7051C47.3943 20.7953 50.1211 24.0953 56.1331 24.0953C58.8889 24.0953 61.5866 23.3757 63.052 22.3258V13.5051H55.9274V16.8963Z" fill="#6B6B6B"/>
</g>
<defs>
<clipPath id="clip0_197_5180">
<rect width="62.2518" height="27.9335" fill="white" transform="translate(0.800293 0.940674)"/>
</clipPath>
</defs>
</svg>
