<svg width="106" height="40" viewBox="0 0 106 40" fill="none" xmlns="http://www.w3.org/2000/svg">
<path d="M52.9668 39.564H52.9282" stroke="#4B59A7" stroke-width="0.324517" stroke-miterlimit="2"/>
<path d="M105.018 0.648438H0.985185H0.929985L0.874786 0.666837L0.837986 0.685237L0.801186 0.703637L0.764387 0.722037L0.727587 0.740437L0.690787 0.777237L0.672388 0.814037L0.653987 0.850836L0.635587 0.906036V0.961236L0.617188 0.998036V32.5355L0.635587 32.5723V32.6275L0.653987 32.6643L0.672388 32.7011L0.690787 32.7379L0.709187 32.7747L0.745986 32.8115L0.782787 32.8299L0.819586 32.8483L0.856387 32.8667L0.911586 32.8851H0.966786L52.9833 35.7738H53.0201L105.037 32.8851H105.073L105.129 32.8667L105.165 32.8483L105.202 32.8299L105.239 32.8115L105.276 32.7747L105.294 32.7379L105.331 32.7011L105.349 32.6643V32.6275L105.368 32.5723V32.5355V0.998036V0.961236L105.349 0.906036V0.850836L105.313 0.814037L105.294 0.777237L105.276 0.740437L105.239 0.722037L105.202 0.703637L105.165 0.685237L105.11 0.666837L105.055 0.648438H105.018Z" fill="url(#paint0_radial_73_5227)"/>
<path d="M103.031 2.875H2.9541V30.7876H103.031V2.875Z" fill="#102C52"/>
<path d="M93.1688 17.4104V18.6248C93.4264 18.6248 94.2176 18.6616 94.5304 18.8456C94.8248 19.0296 95.1192 19.1952 95.1192 19.8576C95.1192 20.52 95.1192 21.2928 95.1192 21.4952C95.1192 22.0104 95.2664 22.5256 95.2664 22.5256C94.3832 23.3535 92.4144 23.4639 91.5496 23.1511C90.2064 22.6544 89.4704 21.9 89.4704 16.7848C89.4704 15.3864 89.3784 12.5896 90.5744 11.3016C91.2736 10.5472 92.396 10.4 93.2056 10.4C94.6776 10.4 95.6344 10.8232 96.2968 12.24C96.5912 12.8472 97.2536 14.4112 97.2536 14.4112H98.5232L98.3024 9.42483C97.4928 9.11203 96.076 8.61523 93.0584 8.61523C90.28 8.61523 88.4216 9.36963 87.1704 10.4184C84.6497 12.5528 84.6497 15.7544 84.6497 16.748C84.6497 17.9072 84.7417 21.7528 87.0232 23.7031C88.3296 24.8255 89.82 25.2487 92.12 25.2487C94.5304 25.2487 95.8552 23.6663 95.8552 23.6663H95.9472C95.9472 23.6663 96.2048 24.0527 96.6464 24.4207C97.0512 24.7519 97.64 25.0463 97.64 25.0463H99.0384C99.0384 25.0463 98.9464 24.0711 98.9464 22.2496C98.9464 20.8512 98.9464 20.0416 98.9464 19.6736C98.9464 19.3056 99.0568 19.048 99.2592 18.9008C99.4616 18.7536 99.7744 18.6616 100.179 18.6064V17.392H93.1688V17.4104Z" fill="#F1F0F1"/>
<path d="M78.7985 23.5377C78.3937 23.7585 77.621 23.7585 77.2898 23.7585V25.1201H85.3305V23.7585C85.1465 23.7585 84.7049 23.7585 84.3185 23.4825C83.8585 23.1145 83.6193 22.4337 83.4905 22.0657C83.0305 20.6489 82.5705 19.2689 82.1473 17.9258C81.7241 16.5826 81.3377 15.3314 80.9881 14.1722C80.6385 13.013 80.3257 11.9642 80.0681 11.0258C79.8105 10.0874 79.6081 9.3698 79.4609 8.78101H75.0818C75.0818 8.78101 71.3834 19.9129 71.0706 20.8329C70.7578 21.7713 70.4266 22.5441 70.0034 23.0409C69.5434 23.5929 68.9546 23.7217 68.7522 23.7217V25.1201H74.2906V23.7585C73.941 23.7585 73.021 23.7033 72.6714 23.5561C72.3034 23.3905 71.8434 22.9305 72.3586 21.2929C72.9106 19.4897 72.9106 19.4897 72.9106 19.4897H77.9706C77.9706 19.4897 77.9705 19.4897 78.4489 20.9617C79.0745 22.7833 79.2401 23.2801 78.7985 23.5377ZM73.4074 18.1834L75.6706 11.3202H75.781L77.6393 18.1834H73.4074Z" fill="#F1F0F1"/>
<path d="M71.2175 8.76245H53.388V10.124C53.9216 10.124 54.4368 10.1976 54.6208 10.5656C54.8416 11.044 54.584 12.1112 53.9768 13.62C53.0936 15.8096 52.468 17.3368 52.468 17.3368H52.3392C51.4008 15.276 50.6648 13.6936 50.1496 12.5712C49.6344 11.4488 49.3768 10.768 49.3768 10.5104C49.3768 10.2896 49.4136 10.1056 50.6648 10.1056V8.76245H42.7712V10.1056C43.36 10.1056 43.8016 10.1792 44.0592 10.2896C44.3168 10.4184 44.5376 10.6576 44.7216 11.044C45.4392 12.5344 46.1384 14.0248 46.8008 15.46C47.4632 16.9136 48.7144 19.7104 48.7144 19.7104V22.636C48.7144 22.8752 48.6776 23.0776 48.5856 23.2248C48.4936 23.372 48.3464 23.4824 48.144 23.556C47.9416 23.6296 47.684 23.6848 47.3528 23.7216C47.04 23.74 46.672 23.7584 46.2488 23.7584V25.12H55.1544V23.7584C54.952 23.7584 54.768 23.74 54.6024 23.74C54.2712 23.7216 53.9952 23.6664 53.7744 23.5744C53.572 23.4824 53.4064 23.372 53.3144 23.2248C53.2224 23.0776 53.1672 22.8936 53.1672 22.636V19.3424L56.3504 12.4056C56.5896 11.8352 56.9944 10.9704 57.3808 10.7128C57.7488 10.4552 58.2088 10.4736 58.9815 10.4552C60.1407 10.4368 60.3615 10.6208 60.5639 10.86C60.7295 11.0808 60.7663 11.5776 60.7663 12.2768V22.6728C60.7663 23.0592 60.5639 23.3352 60.1407 23.5192C59.8095 23.6664 59.2759 23.74 58.5767 23.7768V25.1384H67.4271V23.7768C66.7279 23.7584 66.1943 23.6664 65.8631 23.5192C65.4583 23.3352 65.2375 23.0592 65.2375 22.6728C65.2375 22.6728 65.2375 12.7368 65.2375 12.2768C65.2375 11.5776 65.2743 11.0992 65.4215 10.8784C65.6055 10.6208 65.8263 10.4552 67.0039 10.4552C67.9423 10.4552 68.3103 10.4736 68.6047 10.7128C69.0647 11.0808 69.4143 11.9272 69.6719 12.4976L70.3527 14.0064H71.4935L71.2175 8.76245Z" fill="#F1F0F1"/>
<path d="M43.8755 23.4824C43.4155 23.1144 43.1763 22.4336 43.0475 22.0656C42.5875 20.6488 42.1275 19.2688 41.7043 17.9256C41.2811 16.5824 40.8947 15.3312 40.5451 14.172C40.1955 13.0128 39.9011 11.964 39.6251 11.0256C39.3675 10.0872 39.1651 9.36965 39.0179 8.78085H34.6387C34.6387 8.78085 30.9403 19.9128 30.6275 20.8328C30.3147 21.7712 29.9467 22.6728 29.5419 23.1696C29.0819 23.7216 28.3828 23.7768 27.9044 23.7768C26.8188 23.7768 26.4324 23.5744 26.4324 22.5624C26.4324 21.7712 26.4324 11.2648 26.4324 11.228C26.4324 10.4184 27.058 10.1056 28.6955 10.1056V8.76245H20.986L18.0788 18.9744H17.9316L14.5092 8.76245H6.79968V10.1056C8.45567 10.1056 9.06286 10.4 9.06286 11.228C9.06286 11.4488 9.06286 22.2864 9.06286 22.2864C9.06286 22.8384 8.86046 23.2064 8.47406 23.4272C8.08767 23.648 7.49887 23.7584 6.72607 23.7584V25.12H12.798V23.7584C12.0068 23.7584 11.4548 23.648 11.1237 23.4272C10.7925 23.2064 10.6453 22.82 10.6453 22.2496V11.7432H10.7925L15.4476 25.12H17.6924L21.7772 11.7432H21.9428C21.9428 11.7432 21.9428 22.1208 21.9428 22.544C21.9428 22.9672 21.8876 23.372 21.4828 23.5928C21.1884 23.7584 20.4156 23.7584 20.1028 23.7584V25.12H33.8291V23.7584C33.4795 23.7584 32.5595 23.7032 32.2099 23.556C31.8419 23.3904 31.3819 22.9304 31.8971 21.2928C32.4491 19.4896 32.4491 19.4896 32.4491 19.4896H37.5091C37.5091 19.4896 37.5091 19.4896 37.9875 20.9616C38.5763 22.7648 38.7419 23.28 38.2819 23.5192C37.8771 23.74 37.1043 23.74 36.7731 23.74V25.1016H44.8139V23.74C44.7035 23.74 44.2619 23.7584 43.8755 23.4824ZM32.9643 18.1832L35.2275 11.32H35.3379L37.1963 18.1832H32.9643Z" fill="#F1F0F1"/>
<path d="M100.878 8.48657C101.817 8.48657 102.59 9.25937 102.59 10.1978C102.59 11.1362 101.817 11.909 100.878 11.909C99.94 11.909 99.1672 11.1362 99.1672 10.1978C99.1672 9.24097 99.94 8.48657 100.878 8.48657ZM100.878 11.5778C101.651 11.5778 102.277 10.9522 102.277 10.1794C102.277 9.40657 101.651 8.78097 100.878 8.78097C100.106 8.78097 99.48 9.40657 99.48 10.1794C99.48 10.9522 100.106 11.5778 100.878 11.5778ZM100.216 9.20417H100.97C101.43 9.20417 101.651 9.40657 101.651 9.79296C101.651 10.1242 101.449 10.2898 101.191 10.3266L101.706 11.1546H101.338L100.86 10.3634H100.602V11.1546H100.253V9.20417H100.216ZM100.584 10.0506H100.842C101.062 10.0506 101.302 10.0322 101.302 9.77456C101.302 9.51697 101.062 9.49857 100.842 9.49857H100.584V10.0506Z" fill="#ABABAC"/>
<defs>
<radialGradient id="paint0_radial_73_5227" cx="0" cy="0" r="1" gradientUnits="userSpaceOnUse" gradientTransform="translate(53.6807 12.3174) scale(63.8563 24.3037)">
<stop stop-color="#ABABAD"/>
<stop offset="1" stop-color="#F1F0F1"/>
</radialGradient>
</defs>
</svg>
