<svg width="105" height="36" viewBox="0 0 105 36" fill="none" xmlns="http://www.w3.org/2000/svg">
<g clip-path="url(#clip0_197_5102)">
<path d="M104.892 8.70219C106.319 16.8528 84.0573 27.5268 55.1635 32.5426C26.2731 37.5585 1.69583 35.0133 0.271164 26.8592C-1.15235 18.7075 21.1153 8.03693 50.0057 3.02224C78.8972 -1.99589 103.47 0.549305 104.892 8.70219Z" fill="#034EA2"/>
<path d="M77.7004 20.8016L77.5519 12.3264H80.2332V23.0084H76.3781L73.7025 14.2419H73.645L73.7935 23.0084H71.1294V12.3264H75.1514L77.6405 20.8016H77.7004Z" fill="white"/>
<path d="M28.9617 13.3266L27.4783 23.1208H24.5542L26.5623 12.3264H31.3795L33.3784 23.1208H30.4658L29.0227 13.3266H28.9617Z" fill="white"/>
<path d="M40.1884 23.1208L38.3771 13.4161H38.3184L38.2505 23.1208H35.5381L35.7774 12.3264H40.1965L41.5337 20.5779H41.5912L42.9296 12.3264H47.3463L47.581 23.1208H44.8744L44.803 13.4161H44.7466L42.9365 23.1208H40.1884Z" fill="white"/>
<path d="M19.9933 20.0757C20.0991 20.3373 20.0669 20.6733 20.0174 20.8763C19.9265 21.2354 19.6826 21.6012 18.9622 21.6012C18.2832 21.6012 17.8712 21.2136 17.8712 20.6206V19.5756H14.9667L14.9644 20.4118C14.9644 22.8182 16.8654 23.5443 18.9023 23.5443C20.861 23.5443 22.4744 22.8767 22.731 21.0782C22.8622 20.1457 22.7644 19.5355 22.7195 19.305C22.2626 17.0454 18.152 16.3709 17.8459 15.1069C17.7941 14.8901 17.8091 14.6607 17.8344 14.538C17.9092 14.1939 18.1463 13.8143 18.8241 13.8143C19.457 13.8143 19.831 14.2042 19.831 14.7938C19.831 14.9922 19.831 15.4602 19.831 15.4602H22.5319V14.702C22.5319 12.3507 20.4145 11.9836 18.8805 11.9836C16.9541 11.9836 15.3798 12.6179 15.0921 14.3751C15.0138 14.8603 15.0023 15.2927 15.1163 15.8341C15.5892 18.0398 19.4363 18.6787 19.9933 20.0757Z" fill="white"/>
<path d="M55.2101 20.0562C55.3171 20.3154 55.2826 20.6423 55.2343 20.8453C55.1456 21.2032 54.904 21.5633 54.1882 21.5633C53.5184 21.5633 53.1099 21.1756 53.1099 20.5964L53.1076 19.5607H50.233L50.2295 20.3854C50.2295 22.7677 52.1133 23.4868 54.1295 23.4868C56.0674 23.4868 57.6658 22.8285 57.9179 21.046C58.0491 20.1204 57.9558 19.5182 57.9087 19.2923C57.4541 17.0533 53.3849 16.3858 53.0823 15.1344C53.0305 14.9187 53.0455 14.6916 53.0719 14.5758C53.149 14.2294 53.3815 13.8589 54.0524 13.8589C54.6796 13.8589 55.0455 14.2397 55.0455 14.8247C55.0455 15.0208 55.0455 15.4842 55.0455 15.4842H57.7257V14.7341C57.7257 12.408 55.6255 12.0432 54.1065 12.0432C52.2019 12.0432 50.6403 12.6695 50.3584 14.4141C50.2801 14.8924 50.2721 15.3168 50.3837 15.8558C50.8498 18.0386 54.6589 18.6729 55.2101 20.0562Z" fill="white"/>
<path d="M64.3067 21.5058C65.0581 21.5058 65.2929 20.9874 65.3447 20.7224C65.3665 20.6054 65.3723 20.4494 65.37 20.3095V12.3218H68.1089V20.0652C68.1146 20.2636 68.095 20.6719 68.0858 20.774C67.8937 22.7893 66.2952 23.4431 64.3055 23.4431C62.3135 23.4431 60.7139 22.7893 60.5241 20.774C60.5148 20.6719 60.4953 20.2636 60.501 20.0652V12.3218H63.2376V20.3095C63.2376 20.4494 63.2422 20.6066 63.2629 20.7224C63.3216 20.9874 63.5495 21.5058 64.3067 21.5058Z" fill="white"/>
<path d="M86.8989 21.3923C87.6837 21.3923 87.9576 20.898 88.0083 20.6101C88.0278 20.4862 88.0336 20.336 88.0324 20.1995V18.6327H86.9208V17.0567H90.7609V19.954C90.7586 20.1559 90.754 20.305 90.7218 20.6651C90.5411 22.6288 88.8322 23.3296 86.9127 23.3296C84.9897 23.3296 83.2831 22.6288 83.1002 20.6651C83.0691 20.305 83.0645 20.1559 83.061 19.954L83.0633 15.4084C83.0633 15.2169 83.0875 14.8774 83.1082 14.6973C83.3487 12.6797 84.9897 12.0305 86.9127 12.0305C88.8334 12.0305 90.5147 12.6763 90.7137 14.6973C90.7494 15.0414 90.7379 15.4084 90.7379 15.4084V15.7686H88.0071V15.1641C88.0094 15.1653 88.0036 14.9072 87.9714 14.7535C87.9254 14.5149 87.7171 13.9667 86.892 13.9667C86.1026 13.9667 85.8712 14.4851 85.8137 14.7535C85.7803 14.8957 85.7677 15.0884 85.7677 15.2628V20.1995C85.7654 20.336 85.7734 20.4862 85.7953 20.6101C85.8425 20.8991 86.1152 21.3923 86.8989 21.3923Z" fill="white"/>
</g>
<defs>
<clipPath id="clip0_197_5102">
<rect width="104.751" height="34.6657" fill="white" transform="translate(0.206543 0.448975)"/>
</clipPath>
</defs>
</svg>
