<svg width="85" height="29" viewBox="0 0 85 29" fill="none" xmlns="http://www.w3.org/2000/svg">
<g clip-path="url(#clip0_197_5154)">
<path d="M57.6968 24.6679C57.5378 24.6989 57.2576 24.752 57.0082 24.752C56.1535 24.752 55.6694 24.3897 55.6694 23.4024C55.6694 22.3769 56.3125 22.0146 57.1217 22.0146C57.3711 22.0146 57.5378 22.0606 57.666 22.0986V22.5831C57.5715 22.5563 57.3072 22.5104 57.1105 22.5104C56.6411 22.5104 56.2705 22.5831 56.2705 23.3833C56.2705 24.1728 56.6565 24.2603 57.0803 24.2603C57.3072 24.2603 57.4923 24.2145 57.6968 24.1728V24.6679Z" fill="#231F20"/>
<path d="M60.102 23.3797C60.102 22.6707 59.8714 22.4532 59.4967 22.4532C59.1149 22.4532 58.8844 22.7088 58.8726 23.3797C58.8614 24.0507 59.1037 24.3098 59.4855 24.3098C59.8638 24.3098 60.102 24.0887 60.102 23.3797ZM58.2715 23.3833C58.2715 22.3691 58.7591 22.0146 59.4932 22.0146C60.2267 22.0146 60.7031 22.3924 60.7031 23.3833C60.7031 24.3706 60.2232 24.752 59.4855 24.752C58.752 24.752 58.2715 24.3825 58.2715 23.3833Z" fill="#231F20"/>
<path d="M62.1828 23.3339C62.463 23.3339 62.7124 23.2499 62.7124 22.9109C62.7124 22.5754 62.5162 22.5182 62.1906 22.5182H62.0055V23.3339H62.1828ZM61.4346 22.0528H62.1681C62.9772 22.0528 63.31 22.2704 63.31 22.8876C63.31 23.3911 63.0529 23.5246 62.7503 23.6163V23.6616L62.8301 23.6771C63.106 23.7802 63.2686 24.3099 63.4389 24.6418V24.7139H62.807C62.6823 24.3594 62.5499 23.8219 62.2851 23.7456H62.0055V24.7139H61.4346V22.0528Z" fill="#231F20"/>
<path d="M64.6837 23.3911H64.8918C65.2245 23.3911 65.3907 23.2844 65.3907 22.9526C65.3907 22.6171 65.2245 22.5218 64.9184 22.5218H64.6837V23.3911ZM64.1128 22.0528H64.8315C65.6105 22.0528 65.9882 22.2322 65.9882 22.9145C65.9882 23.5973 65.5384 23.7951 64.971 23.7951H64.6837V24.7139H64.1128V22.0528Z" fill="#231F20"/>
<path d="M68.3107 23.3797C68.3107 22.6707 68.0803 22.4532 67.7059 22.4532C67.3236 22.4532 67.0932 22.7088 67.0813 23.3797C67.0701 24.0507 67.3124 24.3098 67.6947 24.3098C68.073 24.3098 68.3107 24.0887 68.3107 23.3797ZM66.4805 23.3833C66.4805 22.3691 66.9684 22.0146 67.702 22.0146C68.4355 22.0146 68.9122 22.3924 68.9122 23.3833C68.9122 24.3706 68.4322 24.752 67.6947 24.752C66.9611 24.752 66.4805 24.3825 66.4805 23.3833Z" fill="#231F20"/>
<path d="M70.3911 23.3339C70.6718 23.3339 70.9207 23.2499 70.9207 22.9109C70.9207 22.5754 70.7246 22.5182 70.3991 22.5182H70.2142V23.3339H70.3911ZM69.6431 22.0528H70.3766C71.1861 22.0528 71.5189 22.2704 71.5189 22.8876C71.5189 23.3911 71.2614 23.5246 70.959 23.6163V23.6616L71.0389 23.6771C71.3149 23.7802 71.4773 24.3099 71.6476 24.6418V24.7139H71.0158C70.891 24.3594 70.7583 23.8219 70.4935 23.7456H70.2142V24.7139H69.6431V22.0528Z" fill="#231F20"/>
<path d="M73.63 23.7343L73.3652 22.8155L73.3348 22.6666H73.2972L73.2668 22.8155L72.9908 23.7343H73.63ZM72.0981 24.6531L73.0403 22.0338H73.5996L74.5867 24.6531V24.7139H73.9548L73.7356 24.1192H72.9076L72.7142 24.7139H72.0981V24.6531Z" fill="#231F20"/>
<path d="M75.5589 22.5105L74.8174 22.5295V22.0528H76.8754V22.5295L76.13 22.5105V24.7139H75.5589V22.5105Z" fill="#231F20"/>
<path d="M77.481 24.7139V22.0528H78.0521V24.7139H77.481Z" fill="#231F20"/>
<path d="M80.5591 23.3797C80.5591 22.6707 80.3287 22.4532 79.9543 22.4532C79.5726 22.4532 79.3416 22.7088 79.3303 23.3797C79.3191 24.0507 79.5608 24.3098 79.9431 24.3098C80.3207 24.3098 80.5591 24.0887 80.5591 23.3797ZM78.7295 23.3833C78.7295 22.3691 79.2168 22.0146 79.9503 22.0146C80.6839 22.0146 81.1606 22.3924 81.1606 23.3833C81.1606 24.3706 80.6806 24.752 79.9431 24.752C79.2095 24.752 78.7295 24.3825 78.7295 23.3833Z" fill="#231F20"/>
<path d="M81.8916 22.0528H82.3901L83.366 23.4519L83.502 23.6807H83.5363V22.0528H84.1074V24.7139H83.6195L82.6172 23.2613L82.5037 23.067H82.4627V24.7139H81.8916V22.0528Z" fill="#231F20"/>
<path d="M20.5323 3.96512L16.2549 19.7239H13.7693L10.7457 8.27725L7.67754 19.7239H5.19154L0.914062 3.96512H3.37757L6.42329 15.4118L9.49148 3.96512H11.9325L15.0232 15.4118L18.0692 3.96512H20.5323Z" fill="#231F20"/>
<path d="M21.6729 4.01045L24.1364 3.80724V7.66769L24.0915 9.11259H24.1813C25.3233 8.6836 26.2417 8.48039 27.3615 8.48039C29.3548 8.48039 30.6983 9.38375 30.6983 12.8376V19.7239H28.2348V13.0408C28.2348 10.9639 27.227 10.6931 26.0851 10.6931C25.3681 10.6931 24.7635 10.8512 24.1364 11.0318V19.7239H21.6729V4.01045Z" fill="#231F20"/>
<path d="M32.8476 8.63861H35.3111V19.7239H32.8476V8.63861ZM34.0794 4.16833C35.356 4.16833 35.5575 4.91341 35.5575 5.74881C35.5575 6.58415 35.2887 7.35192 34.0794 7.35192C32.8701 7.35192 32.6235 6.58415 32.6235 5.74881C32.6235 4.91341 32.8476 4.16833 34.0794 4.16833Z" fill="#231F20"/>
<path d="M37.3936 8.63861H39.0733L39.4093 9.54164H39.5663C40.2155 8.97733 41.2455 8.48039 42.5895 8.48039C42.7461 8.48039 42.9252 8.48039 43.1044 8.50309V10.9412C42.6568 10.8739 42.1864 10.806 41.716 10.806C41.0439 10.806 40.5066 10.9639 39.8571 11.2575V19.7239H37.3936V8.63861Z" fill="#231F20"/>
<path d="M44.1562 19.7239V4.01045L46.6198 3.80724V19.7239H44.1562Z" fill="#231F20"/>
<path d="M66.4609 14.2375C66.4609 12.1383 66.1247 10.4225 64.1541 10.4225C62.161 10.4225 61.6681 12.0704 61.6681 14.2375C61.6681 16.2468 62.0712 17.9855 64.0423 17.9855C66.013 17.9855 66.4609 16.3374 66.4609 14.2375ZM64.1317 8.48063C67.6254 8.48063 68.9697 10.5577 68.9697 14.2375C68.9697 17.6917 67.7152 19.95 64.0867 19.95C60.4588 19.95 59.1821 17.6917 59.1821 14.2375C59.1821 10.5577 60.6379 8.48063 64.1317 8.48063Z" fill="#231F20"/>
<path d="M77.5068 14.2375C77.5068 12.1383 77.1707 10.4225 75.2005 10.4225C73.2071 10.4225 72.7139 12.0704 72.7139 14.2375C72.7139 16.2468 73.1173 17.9855 75.0882 17.9855C77.0591 17.9855 77.5068 16.3374 77.5068 14.2375ZM75.178 8.48063C78.6715 8.48063 80.0158 10.5577 80.0158 14.2375C80.0158 17.6917 78.7613 19.95 75.1331 19.95C71.505 19.95 70.228 17.6917 70.228 14.2375C70.228 10.5577 71.6839 8.48063 75.178 8.48063Z" fill="#231F20"/>
<path d="M81.6104 19.7239V4.01045L84.0738 3.80724V19.7239H81.6104Z" fill="#231F20"/>
<path d="M51.0988 17.6697C51.7928 17.6917 52.1739 17.7144 52.8903 17.7144C54.4128 17.7144 55.4212 16.9016 55.4212 13.6728C55.4212 11.4605 54.5251 10.8742 52.9128 10.8742C52.2856 10.8742 51.7034 10.9862 51.0988 11.1899V17.6697ZM48.6353 8.63853H50.4942L50.6957 9.45129C51.4352 9.04494 52.8004 8.48064 54.0328 8.48064C56.2717 8.48064 57.9066 10.1287 57.9066 14.0792C57.9066 17.9629 56.1819 19.882 53.3159 19.882C52.2608 19.882 51.0988 19.6562 51.0988 19.6562V24.7357L48.6353 25.0068V8.63853Z" fill="#231F20"/>
<path d="M60.8311 1.82746C58.9888 -0.324379 53.1432 1.56707 46.6197 6.11856V7.26553C52.3648 3.14875 57.4292 1.24925 58.8797 2.94348C60.6907 5.05884 56.1857 11.978 48.8161 18.3894C41.4459 24.8012 34.0005 28.2776 32.1898 26.1622C31.2493 25.0634 32.0162 22.669 34.0005 19.7241H32.8471C30.3901 23.4179 29.4691 26.5212 30.7306 27.9949C33.0303 30.6816 41.6327 27.0059 49.9426 19.7771C58.2517 12.5483 63.1306 4.51391 60.8311 1.82746Z" fill="#EDAC09"/>
</g>
<defs>
<clipPath id="clip0_197_5154">
<rect width="83.1932" height="27.9335" fill="white" transform="translate(0.914062 0.940674)"/>
</clipPath>
</defs>
</svg>
