<svg width="1440" height="352" viewBox="0 0 1440 352" fill="none" xmlns="http://www.w3.org/2000/svg">
	<path d="M1327.44 1224.66C1338.83 1206.15 1330.56 1176.79 1314.85 1162.4C1264.09 1115.88 1244.19 1042.26 1264.22 974.889C1284.8 905.957 1343.72 857.591 1410.83 854.584C1431.94 853.676 1448.78 835.21 1449.49 812.318C1451.35 752.686 1446.98 693.273 1436.54 635.683C1432.47 613.137 1412.74 597.679 1391.56 600.8C1327.67 610.241 1256.88 570.64 1227.19 507.88C1196.44 442.41 1207.15 362.366 1253.9 308.76C1268.63 291.951 1268.67 265.647 1254.02 248.703C1216.68 205.579 1175.05 167.173 1129.65 134.139C1112.11 121.364 1088.52 125.465 1075.47 143.429C1033.9 200.839 963.378 224.49 899.826 202.217C838.922 180.803 791.404 112.187 789.051 42.6438C788.239 19.702 771.263 1.42139 750.2 0.532909C695.01 -1.60592 639.638 3.10686 585.781 14.5976C564.821 19.0419 550.766 40.4398 553.552 63.3116C562.638 136.565 528.192 208.243 467.839 241.752C410.274 273.672 338.217 262.188 284.085 212.586C266.995 195.876 244.531 197.232 229.105 212.795C189.114 253.498 153.256 299.492 122.533 349.319C111.08 367.899 119.977 397.644 135.857 412.194C185.145 455.077 206.243 529.904 185.782 599.048C165.273 668.041 106.355 716.368 39.1418 719.371C18.0978 720.335 1.22504 738.698 0.555727 761.592C-1.39672 820.758 2.97926 880.218 13.3313 938.135C17.3976 960.871 37.0745 976.237 58.3228 973.152C122.416 963.737 193.174 1003.36 222.649 1065.99C253.58 1131.53 242.865 1211.55 196.122 1265.19C181.394 1282.01 181.347 1308.39 195.977 1325.23C215.065 1347.33 235.32 1368.16 256.676 1387.73C276.945 1406.31 298.154 1423.68 320.333 1439.81C337.891 1452.6 361.474 1448.47 374.528 1430.49C416.018 1373.05 486.608 1349.46 550.07 1371.72C611.377 1393.28 658.514 1461.81 660.931 1531.31C661.821 1554.28 678.702 1572.44 699.786 1573.42C754.862 1575.57 810.164 1570.82 864.209 1559.35C885.158 1554.94 899.291 1533.56 896.454 1510.61C887.358 1437.39 921.757 1365.63 982.069 1332.17C1038.82 1300.64 1109.82 1309.62 1158.79 1354.49L1165.49 1360.97C1180.3 1376.93 1205.24 1377.03 1220.86 1361.18C1260.9 1320.46 1296.72 1274.52 1327.44 1224.66ZM455.389 1133.68C278.991 972.041 256.704 685.805 405.605 494.332C554.506 302.859 818.206 278.672 994.599 440.302C1170.99 601.932 1193.28 888.173 1044.38 1079.65C993.842 1144.64 930.062 1190.3 860.968 1216.01L839.175 936.053C869.451 919.417 896.645 896.225 919.187 867.228C963.337 810.455 984.472 738.419 978.699 664.388C972.936 590.367 940.959 523.208 888.666 475.292C871.215 459.302 851.887 445.903 831.219 435.472C822.164 430.907 811.025 431.977 802.84 438.187C794.471 444.538 790.203 454.996 791.118 466.799C791.118 466.799 801.43 605.589 805.034 651.827C805.412 656.671 800.533 662.934 798.437 664.88L796.939 666.331C773.172 691.764 742.949 720.741 729.355 730.065C728.44 730.144 727.619 730.166 726.682 730.252C725.701 730.342 724.779 730.451 723.822 730.553C708.737 723.812 673.948 700.379 646.199 679.247L646.321 679.1L644.915 678.355C644.689 678.192 644.281 677.872 643.773 677.407C640.984 674.852 637.542 670.245 636.957 662.788C633.209 614.655 622.47 482.378 622.47 482.378C621.526 470.485 616.473 463.539 612.405 459.811C602.922 451.122 588.647 450.78 577.677 458.998C502.37 515.62 460.367 612.263 468.069 711.229C473.837 785.265 505.82 852.428 558.121 900.352C584.831 924.826 615.221 942.741 647.635 953.62L669.669 1236.61C593.227 1225.61 518.683 1191.67 455.389 1133.68Z" fill="#2F2F2F" fill-opacity="0.03" />
</svg>
