<svg width="210" height="32" viewBox="0 0 210 32" fill="none" xmlns="http://www.w3.org/2000/svg">
<g clip-path="url(#clip0_249_6364)">
<path d="M121.138 12.0501H123.08C124.353 12.0501 125.089 11.9831 125.424 11.9161C125.759 11.8492 125.96 11.6483 126.161 11.3804C126.362 11.1126 126.429 10.7777 126.429 10.376C126.429 9.90721 126.295 9.57239 126.094 9.30453C125.893 9.03668 125.558 8.83578 125.089 8.76882C124.888 8.76882 124.219 8.70185 123.214 8.70185H121.205V12.0501H121.138ZM118.527 19.5501V6.62596H124.018C125.424 6.62596 126.429 6.75989 127.031 6.96078C127.634 7.16168 128.17 7.63043 128.505 8.2331C128.906 8.83578 129.04 9.50543 129.04 10.242C129.04 11.2465 128.772 11.9831 128.17 12.6527C127.567 13.2554 126.763 13.6572 125.625 13.8581C126.161 14.1929 126.63 14.5277 127.031 14.9295C127.366 15.3313 127.902 16.001 128.505 17.0054L130.112 19.5501H126.964L125.089 16.7376C124.42 15.7331 123.951 15.1304 123.683 14.8626C123.415 14.5947 123.147 14.3938 122.88 14.3269C122.612 14.2599 122.143 14.1929 121.54 14.1929H121.005V19.617H118.527V19.5501Z" fill="black"/>
<path d="M133.46 19.5501V6.62596H138.951C140.357 6.62596 141.362 6.75989 141.964 6.96078C142.567 7.16168 143.103 7.63043 143.438 8.2331C143.839 8.83578 143.973 9.50543 143.973 10.242C143.973 11.2465 143.705 11.9831 143.103 12.6527C142.5 13.2554 141.697 13.6572 140.558 13.8581C141.094 14.1929 141.563 14.5277 141.964 14.9295C142.299 15.3313 142.835 16.001 143.438 17.0054L145.045 19.5501H141.897L140.022 16.7376C139.353 15.7331 138.884 15.1304 138.616 14.8626C138.348 14.5947 138.08 14.3938 137.813 14.3269C137.545 14.2599 137.076 14.1929 136.473 14.1929H136.072V19.617H133.46V19.5501ZM136.072 12.0501H138.014C139.286 12.0501 140.022 11.9831 140.357 11.9161C140.692 11.8492 140.893 11.6483 141.094 11.3804C141.295 11.1126 141.362 10.7777 141.362 10.376C141.362 9.90721 141.228 9.57239 141.027 9.30453C140.826 9.03668 140.491 8.83578 140.022 8.76882C139.822 8.76882 139.152 8.70185 138.147 8.70185H136.139V12.0501H136.072Z" fill="black"/>
<path d="M20.8929 19.5501H18.0804L16.942 16.6036H11.7857L10.7143 19.5501H7.96875L12.9911 6.62596H15.7366L20.8929 19.5501ZM16.0714 14.3938L14.2634 9.57239L12.5223 14.3938H16.0714Z" fill="black"/>
<path d="M24.1743 19.5501V6.62596H33.0136V8.76882H26.7859V11.8492H32.21V14.059H26.7859V19.5501H24.1743Z" fill="black"/>
<path d="M39.9771 19.5501V8.76883H36.1602V6.55901H46.4727V8.76883H42.6557V19.5501H39.9771Z" fill="black"/>
<path d="M49.9551 19.5501V6.62596H59.531V8.76882H52.5667V11.6483H59.0622V13.8581H52.5667V17.4072H59.7988V19.617H49.9551V19.5501Z" fill="black"/>
<path d="M115.245 19.5501H112.433L111.294 16.6036H106.138L105.067 19.5501H102.321L107.344 6.62596H110.089L115.245 19.5501ZM110.491 14.3938L108.683 9.57239L106.942 14.3938H110.491Z" fill="black"/>
<path d="M160.045 19.5501H157.232L156.094 16.6036H150.938L149.866 19.5501H147.121L152.143 6.62596H154.888L160.045 19.5501ZM155.223 14.3938L153.415 9.57239L151.674 14.3938H155.223Z" fill="black"/>
<path d="M163.326 19.5501V6.62596H165.87L171.161 15.2644V6.62596H173.571V19.5501H170.96L165.736 11.1126V19.5501H163.326Z" fill="black"/>
<path d="M181.138 19.5501V8.76883H177.321V6.55901H187.634V8.76883H183.817V19.5501H181.138Z" fill="black"/>
<path d="M194.531 19.5501V14.126L189.777 6.62596H192.857L195.871 11.7152L198.884 6.62596H201.897L197.143 14.126V19.5501H194.531Z" fill="black"/>
<path d="M100.714 6.62597C101.585 6.29115 102.857 5.88937 104.33 5.42062C105.469 5.0858 109.687 3.74651 116.719 2.60812C122.545 1.60365 126.83 1.3358 132.857 0.93401C137.411 0.599189 139.888 0.599189 141.964 1.06794C144.509 1.67062 145.179 2.67508 145.246 2.80901C145.714 3.54562 144.375 4.61705 143.437 5.42062C142.768 6.0233 142.165 6.42508 141.228 6.9608C140.558 7.36258 140.089 7.63044 139.152 8.09919C137.545 8.96972 137.009 9.37151 136.138 9.7733C131.25 12.184 128.437 13.5233 123.75 15.2644C118.728 17.1394 114.442 18.4787 111.763 19.2822C110.759 19.617 106.272 20.9563 99.7768 22.5635C96.0937 23.501 91.2723 24.6394 84.5089 25.9117C80.625 26.6483 77.3437 27.0501 70.6473 27.9206C68.5714 28.1885 66.2277 28.4563 63.3482 28.3224C62.4777 28.2554 59.0625 28.0545 57.1875 27.0501C56.7187 26.7822 55.8482 26.2465 56.1161 25.0412C56.3169 24.1706 57.5223 21.5925 62.6116 19.6505C63.9509 19.1148 63.817 19.0478 66.2946 18.6461" stroke="#FFDC74" stroke-width="0.669643" stroke-miterlimit="10"/>
<path d="M134.264 0.800076C138.817 0.465255 141.295 0.465255 143.371 0.934005C145.916 1.53668 146.585 2.54115 146.652 2.67508C147.255 3.67954 146.05 4.48311 144.844 5.28668C140.157 8.434 137.545 9.70633 137.545 9.70633C132.657 12.117 129.911 13.4563 125.157 15.1974C120.134 17.1394 115.849 18.4117 113.17 19.2153C112.166 19.5501 107.679 20.8894 101.183 22.4965C97.5004 23.434 92.679 24.6394 85.9156 25.9117C82.0317 26.6483 78.7504 27.0501 72.054 27.9206C69.9781 28.1885 67.6343 28.4563 64.7549 28.3224" stroke="#FFDC74" stroke-width="0.669643" stroke-miterlimit="10"/>
<path d="M144.777 4.28221C145.246 4.01436 145.446 3.47864 145.915 3.27775" stroke="#FFDC74" stroke-width="0.669643" stroke-miterlimit="10"/>
<path d="M143.036 6.09024C143.304 5.88935 143.504 5.55453 143.839 5.35363C144.241 5.01881 144.844 4.88488 145.178 4.55006C145.379 4.34917 145.647 4.14828 145.781 4.01435C145.982 3.88042 146.116 3.67953 146.183 3.41167C146.25 3.14381 146.116 2.80899 145.915 2.6081C145.714 2.4072 145.446 2.27328 145.178 2.13935C145.112 2.07238 145.045 1.93845 144.911 1.87149" stroke="#FFDC74" stroke-width="0.669643" stroke-miterlimit="10"/>
<path d="M18.75 27.2509H21.1607V27.5188H19.0848V29.2599H20.8259V29.5277H19.0848V31.6706H18.75V27.2509Z" fill="black" stroke="black" stroke-width="0.167411" stroke-miterlimit="10"/>
<path d="M24.107 27.2509H24.4418L25.982 31.6706H25.6472L24.7766 29.059C24.5758 28.5233 24.4418 28.0545 24.3079 27.5188C24.174 28.0545 23.9731 28.5233 23.8391 29.059L22.9686 31.6706H22.6338L24.107 27.2509ZM23.3034 29.9295H25.3124V30.1974H23.3034V29.9295Z" fill="black" stroke="black" stroke-width="0.167411" stroke-miterlimit="10"/>
<path d="M27.6562 29.4608C27.6562 28.0545 28.3929 27.184 29.5312 27.184C30.067 27.184 30.4688 27.4518 30.6696 27.7197L30.4688 27.9206C30.2009 27.6527 29.933 27.4518 29.5312 27.4518C28.5937 27.4518 27.9911 28.1884 27.9911 29.4608C27.9911 30.6661 28.5937 31.4697 29.5312 31.4697C30 31.4697 30.3348 31.2688 30.6696 30.934L30.8705 31.1349C30.5357 31.5367 30.1339 31.7375 29.5312 31.7375C28.3929 31.7375 27.6562 30.867 27.6562 29.4608Z" fill="black" stroke="black" stroke-width="0.167411" stroke-miterlimit="10"/>
<path d="M33.8843 27.5188H32.478V27.2509H35.6253V27.5188H34.2191V31.6706H33.8843V27.5188Z" fill="black" stroke="black" stroke-width="0.167411" stroke-miterlimit="10"/>
<path d="M37.3657 29.4608C37.3657 28.0545 38.1023 27.184 39.1738 27.184C40.2452 27.184 40.9818 28.0545 40.9818 29.4608C40.9818 30.867 40.2452 31.7375 39.1738 31.7375C38.1023 31.7375 37.3657 30.867 37.3657 29.4608ZM40.647 29.4608C40.647 28.2554 40.0443 27.4518 39.1738 27.4518C38.3032 27.4518 37.7005 28.1884 37.7005 29.4608C37.7005 30.6661 38.3032 31.4697 39.1738 31.4697C40.0443 31.4697 40.647 30.6661 40.647 29.4608Z" fill="black" stroke="black" stroke-width="0.167411" stroke-miterlimit="10"/>
<path d="M43.1919 27.2509H44.4642C45.3348 27.2509 45.9374 27.5858 45.9374 28.3893C45.9374 29.1929 45.3348 29.5947 44.4642 29.5947H43.5267V31.6036H43.1919V27.2509ZM44.3973 29.3938C45.2008 29.3938 45.6026 29.059 45.6026 28.4563C45.6026 27.7867 45.2008 27.5188 44.3973 27.5188H43.5267V29.3938H44.3973ZM44.3973 29.5947L44.6651 29.5277L46.0044 31.7375H45.6696L44.3973 29.5947Z" fill="black" stroke="black" stroke-width="0.167411" stroke-miterlimit="10"/>
<path d="M48.7499 29.8625L47.4106 27.2509H47.7455L48.4151 28.6572C48.549 28.992 48.683 29.2599 48.8839 29.5947C49.0847 29.2599 49.2187 28.992 49.3526 28.6572L50.0222 27.2509H50.3571L49.0178 29.8625V31.6706H48.683V29.8625H48.7499Z" fill="black" stroke="black" stroke-width="0.167411" stroke-miterlimit="10"/>
<path d="M54.8438 27.2509H55.8482C57.1875 27.2509 57.8571 28.1215 57.8571 29.4608C57.8571 30.8 57.1875 31.6706 55.8482 31.6706H54.8438V27.2509ZM55.8482 31.4027C57.0536 31.4027 57.5893 30.5992 57.5893 29.4608C57.5893 28.3224 57.0536 27.5188 55.8482 27.5188H55.1786V31.4027H55.8482Z" fill="black" stroke="black" stroke-width="0.167411" stroke-miterlimit="10"/>
<path d="M60.1338 27.2509H60.4686V31.6706H60.1338V27.2509Z" fill="black" stroke="black" stroke-width="0.167411" stroke-miterlimit="10"/>
<path d="M62.9463 27.2509H64.2186C65.0891 27.2509 65.6918 27.5858 65.6918 28.3893C65.6918 29.1929 65.0891 29.5947 64.2186 29.5947H63.2811V31.6036H62.9463V27.2509ZM64.0847 29.3938C64.8883 29.3938 65.29 29.059 65.29 28.4563C65.29 27.7867 64.8883 27.5188 64.0847 27.5188H63.2141V29.3938H64.0847ZM64.1516 29.5947L64.4195 29.5277L65.7588 31.7375H65.424L64.1516 29.5947Z" fill="black" stroke="black" stroke-width="0.167411" stroke-miterlimit="10"/>
<path d="M67.7681 27.2509H70.1788V27.5188H68.1029V29.1929H69.844V29.4608H68.1029V31.4027H70.2457V31.6706H67.7681V27.2509Z" fill="black" stroke="black" stroke-width="0.167411" stroke-miterlimit="10"/>
<path d="M72.1875 29.4608C72.1875 28.0545 72.9241 27.184 74.0625 27.184C74.5982 27.184 75 27.4518 75.2009 27.7197L75 27.9206C74.7321 27.6527 74.4643 27.4518 74.0625 27.4518C73.125 27.4518 72.5223 28.1884 72.5223 29.4608C72.5223 30.6661 73.125 31.4697 74.0625 31.4697C74.5312 31.4697 74.8661 31.2688 75.2009 30.934L75.4018 31.1349C75.067 31.5367 74.6652 31.7375 74.0625 31.7375C72.9241 31.7375 72.1875 30.867 72.1875 29.4608Z" fill="black" stroke="black" stroke-width="0.167411" stroke-miterlimit="10"/>
<path d="M78.415 27.5188H77.0088V27.2509H80.1561V27.5188H78.7499V31.6706H78.415V27.5188Z" fill="black" stroke="black" stroke-width="0.167411" stroke-miterlimit="10"/>
<path d="M85.7144 27.2509H86.0492L87.5894 31.6706H87.2546L86.3841 29.059C86.1832 28.5233 86.0492 28.0545 85.9153 27.5188C85.7814 28.0545 85.5805 28.5233 85.4466 29.059L84.576 31.6706H84.2412L85.7144 27.2509ZM84.8439 29.9295H86.8528V30.1974H84.8439V29.9295Z" fill="black" stroke="black" stroke-width="0.167411" stroke-miterlimit="10"/>
<path d="M89.4639 27.2509H90.6023C91.6067 27.2509 92.2094 27.5858 92.2094 28.4563C92.2094 29.3268 91.6067 29.7286 90.6692 29.7286H89.8656V31.6036H89.5308V27.2509H89.4639ZM90.5353 29.5277C91.4058 29.5277 91.8746 29.2599 91.8746 28.5233C91.8746 27.7867 91.4058 27.5858 90.5353 27.5858H89.7987V29.5947H90.5353V29.5277Z" fill="black" stroke="black" stroke-width="0.167411" stroke-miterlimit="10"/>
<path d="M94.3525 27.2509H95.4909C96.4954 27.2509 97.0981 27.5858 97.0981 28.4563C97.0981 29.3268 96.4954 29.7286 95.5579 29.7286H94.7543V31.6036H94.4195V27.2509H94.3525ZM95.424 29.5277C96.2945 29.5277 96.7633 29.2599 96.7633 28.5233C96.7633 27.7867 96.2945 27.5858 95.424 27.5858H94.6874V29.5947H95.424V29.5277Z" fill="black" stroke="black" stroke-width="0.167411" stroke-miterlimit="10"/>
<path d="M99.3076 27.2509H99.6424V31.4027H101.651V31.6706H99.3076V27.2509Z" fill="black" stroke="black" stroke-width="0.167411" stroke-miterlimit="10"/>
<path d="M103.594 27.2509H103.929V31.6706H103.594V27.2509Z" fill="black" stroke="black" stroke-width="0.167411" stroke-miterlimit="10"/>
<path d="M107.411 27.2509H107.746L109.286 31.6706H108.951L108.08 29.059C107.879 28.5233 107.746 28.0545 107.612 27.5188C107.478 28.0545 107.277 28.5233 107.143 29.059L106.272 31.6706H105.938L107.411 27.2509ZM106.54 29.9295H108.549V30.1974H106.54V29.9295Z" fill="black" stroke="black" stroke-width="0.167411" stroke-miterlimit="10"/>
<path d="M111.161 27.2509H111.495L113.37 30.3313L113.839 31.2018C113.839 30.8 113.772 30.3313 113.772 29.9295V27.2509H114.04V31.6706H113.705L111.83 28.5902L111.362 27.7197C111.362 28.1215 111.428 28.5233 111.428 28.992V31.7375H111.161V27.2509Z" fill="black" stroke="black" stroke-width="0.167411" stroke-miterlimit="10"/>
<path d="M116.384 29.4608C116.384 28.0545 117.12 27.184 118.259 27.184C118.795 27.184 119.196 27.4518 119.397 27.7197L119.196 27.9206C118.928 27.6527 118.661 27.4518 118.259 27.4518C117.321 27.4518 116.719 28.1884 116.719 29.4608C116.719 30.6661 117.321 31.4697 118.259 31.4697C118.728 31.4697 119.062 31.2688 119.397 30.934L119.598 31.1349C119.263 31.5367 118.861 31.7375 118.259 31.7375C117.12 31.7375 116.384 30.867 116.384 29.4608Z" fill="black" stroke="black" stroke-width="0.167411" stroke-miterlimit="10"/>
<path d="M121.674 27.2509H124.085V27.5188H122.009V29.1929H123.75V29.4608H122.009V31.4027H124.152V31.6706H121.674V27.2509Z" fill="black" stroke="black" stroke-width="0.167411" stroke-miterlimit="10"/>
<path d="M128.906 27.2509H130.179C131.049 27.2509 131.652 27.5858 131.652 28.3893C131.652 29.1929 131.049 29.5947 130.179 29.5947H129.241V31.6036H128.906V27.2509ZM130.045 29.3938C130.848 29.3938 131.25 29.059 131.25 28.4563C131.25 27.7867 130.848 27.5188 130.045 27.5188H129.174V29.3938H130.045ZM130.112 29.5947L130.379 29.5277L131.719 31.7375H131.384L130.112 29.5947Z" fill="black" stroke="black" stroke-width="0.167411" stroke-miterlimit="10"/>
<path d="M133.728 27.2509H136.138V27.5188H134.062V29.1929H135.803V29.4608H134.062V31.4027H136.205V31.6706H133.728V27.2509Z" fill="black" stroke="black" stroke-width="0.167411" stroke-miterlimit="10"/>
<path d="M138.416 27.2509H139.554C140.558 27.2509 141.161 27.5858 141.161 28.4563C141.161 29.3268 140.558 29.7286 139.621 29.7286H138.75V31.6036H138.416V27.2509ZM139.487 29.5277C140.357 29.5277 140.826 29.2599 140.826 28.5233C140.826 27.7867 140.357 27.5858 139.487 27.5858H138.75V29.5947H139.487V29.5277Z" fill="black" stroke="black" stroke-width="0.167411" stroke-miterlimit="10"/>
<path d="M144.241 27.2509H144.576L146.116 31.6706H145.781L144.91 29.059C144.71 28.5233 144.576 28.0545 144.442 27.5188C144.308 28.0545 144.107 28.5233 143.973 29.059L143.102 31.6706H142.768L144.241 27.2509ZM143.437 29.9295H145.446V30.1974H143.437V29.9295Z" fill="black" stroke="black" stroke-width="0.167411" stroke-miterlimit="10"/>
<path d="M148.058 27.2509H148.393V31.6706H148.058V27.2509Z" fill="black" stroke="black" stroke-width="0.167411" stroke-miterlimit="10"/>
<path d="M150.87 27.2509H152.142C153.013 27.2509 153.616 27.5858 153.616 28.3893C153.616 29.1929 153.013 29.5947 152.142 29.5947H151.205V31.6036H150.87V27.2509ZM152.075 29.3938C152.879 29.3938 153.281 29.059 153.281 28.4563C153.281 27.7867 152.879 27.5188 152.075 27.5188H151.205V29.3938H152.075ZM152.075 29.5947L152.343 29.5277L153.683 31.7375H153.348L152.075 29.5947Z" fill="black" stroke="black" stroke-width="0.167411" stroke-miterlimit="10"/>
<path d="M157.968 31.0679L158.169 30.867C158.504 31.2018 158.973 31.4697 159.441 31.4697C160.111 31.4697 160.513 31.1349 160.513 30.5992C160.513 30.0634 160.178 29.8625 159.709 29.6617L159.04 29.3938C158.638 29.1929 158.169 28.925 158.169 28.3224C158.169 27.6527 158.705 27.2509 159.441 27.2509C159.977 27.2509 160.379 27.5188 160.647 27.7867L160.446 27.9875C160.178 27.7197 159.843 27.5188 159.375 27.5188C158.772 27.5188 158.37 27.8536 158.37 28.3224C158.37 28.8581 158.839 29.059 159.107 29.1929L159.776 29.4608C160.245 29.6617 160.714 29.9295 160.714 30.5992C160.714 31.2688 160.178 31.8045 159.308 31.8045C158.772 31.7375 158.303 31.4697 157.968 31.0679Z" fill="black" stroke="black" stroke-width="0.167411" stroke-miterlimit="10"/>
<path d="M162.991 27.2509H165.402V27.5188H163.326V29.1929H165.067V29.4608H163.326V31.4027H165.469V31.6706H162.991V27.2509Z" fill="black" stroke="black" stroke-width="0.167411" stroke-miterlimit="10"/>
<path d="M167.678 27.2509H168.951C169.821 27.2509 170.424 27.5858 170.424 28.3893C170.424 29.1929 169.821 29.5947 168.951 29.5947H168.013V31.6036H167.678V27.2509ZM168.884 29.3938C169.687 29.3938 170.089 29.059 170.089 28.4563C170.089 27.7867 169.687 27.5188 168.884 27.5188H168.013V29.3938H168.884ZM168.884 29.5947L169.151 29.5277L170.491 31.7375H170.156L168.884 29.5947Z" fill="black" stroke="black" stroke-width="0.167411" stroke-miterlimit="10"/>
<path d="M171.898 27.2509H172.233L173.036 29.7956C173.237 30.3313 173.304 30.7331 173.505 31.2688C173.706 30.7331 173.773 30.3313 173.974 29.7956L174.777 27.2509H175.112L173.639 31.6706H173.304L171.898 27.2509Z" fill="black" stroke="black" stroke-width="0.167411" stroke-miterlimit="10"/>
<path d="M177.054 27.2509H177.389V31.6706H177.054V27.2509Z" fill="black" stroke="black" stroke-width="0.167411" stroke-miterlimit="10"/>
<path d="M179.599 29.4608C179.599 28.0545 180.335 27.184 181.474 27.184C182.009 27.184 182.411 27.4518 182.612 27.7197L182.411 27.9206C182.143 27.6527 181.875 27.4518 181.474 27.4518C180.536 27.4518 179.933 28.1884 179.933 29.4608C179.933 30.6661 180.536 31.4697 181.474 31.4697C181.942 31.4697 182.277 31.2688 182.612 30.934L182.813 31.1349C182.478 31.5367 182.076 31.7375 181.474 31.7375C180.335 31.7375 179.599 30.867 179.599 29.4608Z" fill="black" stroke="black" stroke-width="0.167411" stroke-miterlimit="10"/>
<path d="M184.888 27.2509H187.299V27.5188H185.223V29.1929H186.964V29.4608H185.223V31.4027H187.366V31.6706H184.888V27.2509Z" fill="black" stroke="black" stroke-width="0.167411" stroke-miterlimit="10"/>
<path d="M189.174 31.0679L189.375 30.867C189.71 31.2018 190.179 31.4697 190.648 31.4697C191.317 31.4697 191.719 31.1349 191.719 30.5992C191.719 30.0634 191.384 29.8625 190.915 29.6617L190.246 29.3938C189.844 29.1929 189.375 28.925 189.375 28.3224C189.375 27.6527 189.911 27.2509 190.648 27.2509C191.183 27.2509 191.585 27.5188 191.853 27.7867L191.652 27.9875C191.384 27.7197 191.049 27.5188 190.581 27.5188C189.978 27.5188 189.576 27.8536 189.576 28.3224C189.576 28.8581 190.045 29.059 190.313 29.1929L190.982 29.4608C191.451 29.6617 191.92 29.9295 191.92 30.5992C191.92 31.2688 191.384 31.8045 190.514 31.8045C190.045 31.7375 189.509 31.4697 189.174 31.0679Z" fill="black" stroke="black" stroke-width="0.167411" stroke-miterlimit="10"/>
<path d="M0 29.3938H14.4643H0Z" fill="black"/>
<path d="M0 29.3938H14.4643" stroke="black" stroke-width="0.669643" stroke-miterlimit="10"/>
<path d="M195.536 29.3938H210H195.536Z" fill="black"/>
<path d="M195.536 29.3938H210" stroke="black" stroke-width="0.669643" stroke-miterlimit="10"/>
<path d="M87.5227 19.5501L84.4424 6.62596H87.121L89.0629 15.5322L91.4067 6.62596H94.487L96.7638 15.6661L98.7727 6.62596H101.384L98.237 19.5501H95.4915L92.9468 9.90721L90.4022 19.5501H87.5227Z" fill="black"/>
<path d="M63.8838 19.5501V6.62596H69.3749C70.7811 6.62596 71.7856 6.75989 72.3883 6.96078C72.9909 7.16168 73.5266 7.63043 73.8615 8.2331C74.1963 8.83578 74.3972 9.50543 74.3972 10.242C74.3972 11.2465 74.1293 11.9831 73.5266 12.6527C72.924 13.2554 72.1204 13.6572 70.982 13.8581C71.5177 14.1929 71.9865 14.5277 72.3883 14.9295C72.7231 15.3313 73.2588 16.001 73.8615 17.0054L75.4686 19.5501H72.3213L70.4463 16.7376C69.7766 15.7331 69.3079 15.1304 69.04 14.8626C68.7722 14.5947 68.5043 14.3938 68.2365 14.3269C67.9686 14.2599 67.4999 14.1929 66.8972 14.1929H66.3615V19.617H63.8838V19.5501ZM66.4954 12.0501H68.4374C69.7097 12.0501 70.4463 11.9831 70.7811 11.9161C71.1159 11.8492 71.3168 11.6483 71.5177 11.3804C71.7186 11.1126 71.7856 10.7777 71.7856 10.376C71.7856 9.90721 71.6516 9.57239 71.4508 9.30453C71.2499 9.03668 70.915 8.83578 70.4463 8.76882C70.2454 8.76882 69.5758 8.70185 68.5713 8.70185H66.5624V12.0501H66.4954Z" fill="black"/>
</g>
<defs>
<clipPath id="clip0_249_6364">
<rect width="210" height="31.6607" fill="white" transform="translate(0 0.230865)"/>
</clipPath>
</defs>
</svg>
